<svg version="1.1" xmlns="http://www.w3.org/2000/svg" viewBox="0 0 652 112" width="652" height="112">
  <!-- svg-source:excalidraw -->
  
  <defs>
    <style>
      @font-face {
        font-family: "Virgil";
        src: url("https://excalidraw.com/Virgil.woff2");
      }
      @font-face {
        font-family: "Cascadia";
        src: url("https://excalidraw.com/Cascadia.woff2");
      }
    </style>
  </defs>
  <g transform="translate(218 18) rotate(0 -60.5 37.5)" stroke="none"><path fill="#000000" d="M -0.90,1.27 Q -0.90,1.27 -2.89,-0.19 -4.88,-1.65 -7.86,-2.77 -10.84,-3.89 -14.93,-4.66 -19.02,-5.44 -28.47,-5.78 -37.92,-6.12 -45.99,-6.27 -54.06,-6.42 -60.57,-5.63 -67.07,-4.84 -74.09,-2.80 -81.10,-0.76 -85.47,1.22 -89.84,3.20 -92.17,5.12 -94.50,7.04 -95.72,8.62 -96.94,10.19 -97.06,11.79 -97.18,13.39 -96.78,14.99 -96.38,16.60 -94.39,17.99 -92.40,19.37 -88.67,21.49 -84.95,23.60 -80.24,25.64 -75.52,27.69 -70.66,29.42 -65.80,31.15 -61.37,33.06 -56.95,34.97 -52.53,36.63 -48.11,38.28 -44.46,39.87 -40.81,41.46 -38.88,42.76 -36.94,44.07 -35.69,45.21 -34.43,46.36 -33.73,48.00 -33.03,49.64 -33.34,51.53 -33.66,53.41 -35.18,55.42 -36.69,57.43 -38.87,59.15 -41.04,60.86 -43.99,62.72 -46.94,64.57 -50.17,66.75 -53.39,68.93 -56.55,70.74 -59.70,72.56 -62.77,74.19 -65.84,75.81 -68.25,77.34 -70.65,78.86 -74.69,80.43 -78.72,82.01 -82.23,82.68 -85.74,83.36 -89.28,83.64 -92.83,83.91 -95.99,82.84 -99.15,81.77 -101.89,80.44 -104.63,79.11 -107.80,77.39 -110.97,75.68 -113.51,74.05 -116.05,72.43 -117.56,70.45 -119.07,68.47 -120.00,66.42 -120.94,64.37 -121.37,62.26 -121.81,60.16 -122.05,58.58 -122.29,57.00 -121.31,55.27 -120.33,53.53 -116.13,52.54 -111.93,51.55 -107.48,50.40 -103.02,49.26 -98.12,48.76 -93.22,48.27 -90.59,48.07 -87.97,47.88 -86.27,47.71 -84.57,47.55 -83.47,47.43 -82.36,47.30 -81.25,47.56 -80.15,47.82 -79.20,48.39 -78.26,48.95 -77.48,51.30 -76.70,53.65 -76.70,54.03 -76.71,54.41 -76.84,54.76 -76.96,55.11 -77.19,55.41 -77.42,55.70 -77.74,55.91 -78.05,56.12 -78.42,56.21 -78.78,56.31 -79.15,56.28 -79.53,56.25 -79.88,56.11 -80.22,55.97 -80.50,55.72 -80.79,55.47 -80.98,55.15 -81.16,54.82 -81.24,54.45 -81.32,54.09 -81.27,53.71 -81.22,53.34 -81.06,53.00 -80.90,52.66 -80.63,52.39 -80.37,52.13 -80.04,51.95 -79.70,51.78 -79.33,51.73 -78.96,51.67 -78.59,51.74 -78.22,51.81 -77.89,51.99 -77.56,52.17 -77.31,52.45 -77.05,52.72 -76.90,53.07 -76.75,53.41 -76.71,53.78 -76.68,54.16 -76.77,54.52 -76.85,54.89 -77.05,55.21 -77.25,55.53 -77.54,55.76 -77.83,56.00 -78.18,56.14 -78.53,56.27 -78.91,56.28 -79.28,56.30 -79.64,56.19 -80.00,56.09 -80.31,55.87 -80.62,55.66 -80.84,55.35 -81.06,55.05 -81.18,54.69 -81.29,54.33 -81.29,54.34 -81.29,54.34 -81.26,53.08 -81.23,51.83 -82.81,51.27 -84.40,50.71 -86.06,50.73 -87.73,50.75 -90.32,50.99 -92.91,51.23 -97.57,51.75 -102.23,52.27 -106.74,53.52 -111.26,54.77 -115.25,55.97 -119.24,57.16 -119.17,58.41 -119.10,59.65 -118.81,61.48 -118.51,63.31 -117.73,65.11 -116.94,66.92 -115.76,68.58 -114.58,70.25 -112.15,71.80 -109.71,73.35 -106.59,75.04 -103.46,76.73 -100.86,78.00 -98.25,79.27 -95.60,80.27 -92.95,81.26 -89.59,80.99 -86.24,80.72 -82.97,80.10 -79.70,79.48 -75.91,78.01 -72.12,76.54 -69.64,74.95 -67.16,73.36 -64.15,71.73 -61.13,70.10 -58.09,68.30 -55.05,66.51 -51.82,64.26 -48.59,62.00 -45.82,60.18 -43.05,58.37 -41.23,56.87 -39.41,55.36 -38.31,53.86 -37.20,52.36 -36.95,50.37 -36.70,48.37 -37.57,47.31 -38.44,46.25 -40.16,45.07 -41.87,43.89 -45.46,42.34 -49.04,40.78 -53.53,39.11 -58.01,37.43 -62.36,35.56 -66.70,33.69 -71.65,31.94 -76.61,30.19 -81.46,28.10 -86.31,26.01 -90.21,23.82 -94.11,21.62 -96.54,19.62 -98.96,17.63 -99.47,15.34 -99.98,13.04 -99.54,10.88 -99.10,8.72 -97.64,6.86 -96.18,5.00 -93.57,2.89 -90.96,0.79 -86.40,-1.27 -81.85,-3.33 -74.63,-5.43 -67.41,-7.52 -60.71,-8.33 -54.02,-9.15 -45.92,-9.01 -37.82,-8.88 -28.16,-8.54 -18.51,-8.21 -14.17,-7.40 -9.83,-6.60 -6.49,-5.34 -3.16,-4.09 -1.13,-2.68 0.90,-1.27 1.04,-1.14 1.18,-1.01 1.29,-0.86 1.39,-0.70 1.45,-0.52 1.52,-0.34 1.54,-0.16 1.56,0.02 1.53,0.21 1.51,0.39 1.44,0.57 1.37,0.74 1.26,0.90 1.15,1.05 1.00,1.17 0.86,1.29 0.69,1.38 0.53,1.46 0.34,1.51 0.16,1.55 -0.02,1.55 -0.21,1.54 -0.39,1.49 -0.57,1.45 -0.74,1.36 -0.90,1.27 -0.90,1.27 L -0.90,1.27 Z"></path></g><g transform="translate(235 58) rotate(0 -13 16)" stroke="none"><path fill="#000000" d="M 0.85,1.70 Q 0.85,1.70 -0.88,2.53 -2.62,3.37 -4.16,4.27 -5.69,5.17 -6.75,6.29 -7.81,7.40 -8.48,8.85 -9.14,10.30 -10.10,12.64 -11.05,14.98 -12.05,17.97 -13.05,20.97 -14.09,23.45 -15.14,25.94 -15.80,27.60 -16.47,29.25 -18.47,31.07 -20.47,32.88 -22.10,28.32 -23.72,23.75 -24.78,21.22 -25.84,18.68 -26.66,16.67 -27.49,14.66 -27.56,14.40 -27.62,14.15 -27.60,13.88 -27.58,13.62 -27.48,13.37 -27.38,13.13 -27.21,12.93 -27.03,12.73 -26.80,12.60 -26.57,12.47 -26.32,12.41 -26.06,12.36 -25.79,12.40 -25.53,12.43 -25.29,12.54 -25.06,12.66 -24.87,12.84 -24.68,13.03 -24.56,13.26 -24.44,13.50 -24.40,13.76 -24.36,14.02 -24.41,14.28 -24.46,14.54 -24.58,14.77 -24.71,15.01 -24.91,15.18 -25.10,15.36 -25.34,15.47 -25.58,15.58 -25.85,15.60 -26.11,15.62 -26.37,15.56 -26.62,15.50 -26.85,15.36 -27.07,15.22 -27.24,15.02 -27.41,14.81 -27.50,14.57 -27.60,14.32 -27.61,14.06 -27.62,13.79 -27.54,13.54 -27.47,13.28 -27.31,13.07 -27.16,12.85 -26.95,12.70 -26.74,12.54 -26.48,12.46 -26.23,12.38 -25.97,12.38 -25.70,12.39 -25.45,12.48 -25.21,12.56 -25.00,12.73 -24.79,12.89 -24.65,13.11 -24.50,13.33 -24.50,13.33 -24.50,13.33 -23.57,15.30 -22.63,17.26 -21.31,20.10 -19.98,22.94 -20.11,26.43 -20.24,29.93 -19.83,28.95 -19.43,27.96 -18.68,26.39 -17.94,24.81 -17.01,22.41 -16.08,20.01 -15.14,16.90 -14.21,13.79 -13.32,11.25 -12.43,8.70 -11.45,6.78 -10.47,4.85 -9.03,3.44 -7.58,2.04 -5.92,1.05 -4.27,0.07 -2.56,-0.81 -0.85,-1.70 -0.63,-1.77 -0.41,-1.85 -0.19,-1.87 0.03,-1.90 0.26,-1.86 0.49,-1.83 0.70,-1.75 0.91,-1.66 1.10,-1.53 1.28,-1.39 1.43,-1.22 1.58,-1.04 1.68,-0.84 1.79,-0.63 1.84,-0.41 1.89,-0.19 1.88,0.03 1.88,0.26 1.82,0.48 1.76,0.70 1.65,0.91 1.54,1.11 1.38,1.27 1.23,1.44 1.04,1.57 0.85,1.70 0.85,1.70 L 0.85,1.70 Z"></path></g><g transform="translate(210 37) rotate(0 31 0.5)" stroke="none"><path fill="#000000" d="M -0.16,-1.68 Q -0.16,-1.68 2.71,-1.91 5.59,-2.15 8.94,-1.95 12.29,-1.75 17.74,-1.07 23.19,-0.40 28.02,-0.11 32.86,0.17 36.92,0.30 40.99,0.43 44.10,0.21 47.20,-0.01 49.94,-0.38 52.69,-0.76 54.68,-1.21 56.68,-1.65 59.23,-2.12 61.78,-2.59 62.04,-2.58 62.30,-2.57 62.55,-2.48 62.79,-2.39 62.99,-2.23 63.20,-2.07 63.34,-1.85 63.47,-1.63 63.54,-1.37 63.60,-1.12 63.58,-0.86 63.55,-0.60 63.45,-0.36 63.35,-0.12 63.17,0.06 63.00,0.25 62.77,0.38 62.54,0.51 62.29,0.55 62.03,0.60 61.78,0.57 61.52,0.53 61.29,0.41 61.05,0.30 60.87,0.11 60.69,-0.06 60.57,-0.29 60.46,-0.53 60.42,-0.79 60.39,-1.04 60.44,-1.30 60.49,-1.55 60.62,-1.78 60.74,-2.01 60.94,-2.18 61.13,-2.35 61.37,-2.46 61.61,-2.56 61.87,-2.58 62.13,-2.60 62.38,-2.53 62.64,-2.47 62.85,-2.33 63.07,-2.19 63.24,-1.99 63.40,-1.78 63.49,-1.54 63.58,-1.29 63.58,-1.03 63.59,-0.77 63.51,-0.52 63.43,-0.28 63.28,-0.06 63.13,0.14 62.92,0.29 62.70,0.44 62.46,0.51 62.21,0.59 62.21,0.59 62.21,0.59 59.73,0.79 57.26,0.99 55.16,1.45 53.06,1.91 50.23,2.31 47.40,2.71 44.16,2.96 40.91,3.21 36.81,3.11 32.70,3.01 27.77,2.75 22.84,2.49 17.49,1.88 12.14,1.26 9.02,1.13 5.90,1.00 3.03,1.34 0.16,1.68 -0.03,1.67 -0.23,1.67 -0.43,1.62 -0.63,1.56 -0.81,1.46 -0.98,1.37 -1.13,1.23 -1.28,1.09 -1.40,0.92 -1.51,0.75 -1.58,0.56 -1.64,0.36 -1.67,0.16 -1.69,-0.03 -1.66,-0.23 -1.63,-0.43 -1.55,-0.62 -1.48,-0.81 -1.36,-0.98 -1.24,-1.14 -1.08,-1.27 -0.93,-1.41 -0.74,-1.50 -0.56,-1.59 -0.36,-1.63 -0.16,-1.68 -0.16,-1.68 L -0.16,-1.68 Z"></path></g><g transform="translate(315 13) rotate(0 -26.5 40.5)" stroke="none"><path fill="#000000" d="M -0.22,1.56 Q -0.22,1.56 -2.23,1.26 -4.24,0.96 -6.16,0.84 -8.09,0.71 -10.41,1.46 -12.74,2.21 -17.77,4.51 -22.81,6.80 -26.54,10.26 -30.27,13.72 -32.71,17.13 -35.14,20.55 -36.71,25.05 -38.28,29.55 -39.84,34.11 -41.41,38.67 -42.64,43.16 -43.87,47.65 -44.68,51.83 -45.48,56.00 -45.82,59.18 -46.16,62.36 -46.31,65.13 -46.46,67.91 -46.52,70.24 -46.58,72.56 -46.55,74.42 -46.52,76.27 -46.43,77.62 -46.33,78.96 -46.39,80.51 -46.45,82.05 -47.76,82.62 -49.06,83.19 -50.25,82.75 -51.43,82.31 -53.22,79.17 -55.00,76.03 -55.12,75.68 -55.23,75.33 -55.23,74.97 -55.22,74.60 -55.10,74.26 -54.98,73.91 -54.75,73.62 -54.53,73.34 -54.22,73.13 -53.92,72.93 -53.57,72.84 -53.21,72.75 -52.85,72.77 -52.48,72.79 -52.14,72.93 -51.81,73.07 -51.53,73.31 -51.25,73.55 -51.07,73.87 -50.89,74.18 -50.81,74.54 -50.74,74.90 -50.78,75.26 -50.82,75.63 -50.98,75.96 -51.14,76.29 -51.39,76.55 -51.65,76.81 -51.97,76.98 -52.30,77.15 -52.66,77.20 -53.02,77.26 -53.38,77.19 -53.74,77.13 -54.06,76.95 -54.39,76.78 -54.63,76.51 -54.88,76.24 -55.03,75.91 -55.18,75.57 -55.22,75.21 -55.25,74.84 -55.17,74.49 -55.08,74.13 -54.89,73.82 -54.70,73.51 -54.42,73.28 -54.14,73.04 -53.79,72.91 -53.45,72.78 -53.09,72.77 -52.72,72.75 -52.37,72.85 -52.02,72.96 -51.72,73.16 -51.42,73.37 -51.20,73.67 -50.98,73.96 -50.99,73.96 -50.99,73.96 -50.30,76.48 -49.62,78.99 -49.50,77.61 -49.39,76.23 -49.31,74.36 -49.22,72.49 -49.16,70.13 -49.10,67.77 -48.95,64.92 -48.80,62.07 -48.45,58.79 -48.10,55.50 -47.28,51.22 -46.45,46.95 -45.21,42.37 -43.96,37.80 -42.40,33.22 -40.84,28.64 -39.12,23.81 -37.40,18.98 -34.79,15.32 -32.18,11.66 -28.11,7.94 -24.04,4.22 -18.84,1.80 -13.63,-0.61 -10.80,-1.48 -7.97,-2.35 -5.89,-2.23 -3.80,-2.11 -1.79,-1.83 0.22,-1.56 0.40,-1.51 0.59,-1.46 0.75,-1.37 0.92,-1.28 1.06,-1.15 1.20,-1.02 1.31,-0.86 1.41,-0.70 1.47,-0.52 1.54,-0.34 1.56,-0.15 1.58,0.03 1.55,0.22 1.52,0.41 1.45,0.58 1.38,0.76 1.27,0.91 1.16,1.07 1.01,1.19 0.87,1.32 0.70,1.40 0.52,1.49 0.34,1.53 0.15,1.57 -0.03,1.57 -0.22,1.56 -0.22,1.56 L -0.22,1.56 Z"></path></g><g transform="translate(257 64) rotate(0 26 -0.5)" stroke="none"><path fill="#000000" d="M 0,-1.56 Q 0,-1.56 2.3,-1.53 4.6,-1.49 7.01,-1.47 9.43,-1.44 11.60,-1.42 13.78,-1.41 15.85,-1.41 17.93,-1.40 20.25,-1.39 22.57,-1.38 25.85,-1.37 29.14,-1.36 33.70,-1.35 38.26,-1.34 41.34,-1.34 44.43,-1.33 46.52,-1.61 48.61,-1.89 50.20,-2.19 51.80,-2.50 52.04,-2.49 52.29,-2.48 52.52,-2.40 52.75,-2.31 52.94,-2.16 53.13,-2.00 53.26,-1.80 53.39,-1.59 53.45,-1.35 53.51,-1.11 53.49,-0.87 53.46,-0.62 53.37,-0.40 53.27,-0.17 53.10,0.00 52.94,0.18 52.73,0.30 52.51,0.42 52.27,0.47 52.03,0.51 51.79,0.48 51.54,0.44 51.32,0.33 51.11,0.22 50.93,0.05 50.76,-0.12 50.65,-0.34 50.54,-0.56 50.51,-0.80 50.48,-1.04 50.53,-1.28 50.57,-1.52 50.70,-1.74 50.82,-1.95 51.00,-2.11 51.18,-2.28 51.41,-2.37 51.64,-2.47 51.88,-2.49 52.12,-2.51 52.36,-2.45 52.60,-2.39 52.81,-2.25 53.01,-2.12 53.17,-1.93 53.32,-1.74 53.40,-1.51 53.49,-1.27 53.49,-1.03 53.50,-0.78 53.42,-0.55 53.35,-0.32 53.21,-0.12 53.06,0.07 52.86,0.21 52.66,0.36 52.43,0.43 52.19,0.50 52.19,0.50 52.19,0.50 50.57,0.62 48.95,0.74 46.69,1.04 44.43,1.33 41.34,1.34 38.26,1.34 33.70,1.35 29.14,1.36 25.85,1.37 22.57,1.38 20.25,1.39 17.93,1.40 15.85,1.41 13.78,1.41 11.60,1.42 9.43,1.44 7.01,1.47 4.6,1.49 2.3,1.53 0,1.56 -0.18,1.54 -0.37,1.52 -0.55,1.45 -0.72,1.38 -0.88,1.28 -1.04,1.17 -1.16,1.03 -1.29,0.89 -1.37,0.72 -1.46,0.55 -1.51,0.37 -1.55,0.18 -1.55,-0.00 -1.55,-0.18 -1.51,-0.37 -1.46,-0.55 -1.37,-0.72 -1.29,-0.89 -1.16,-1.03 -1.04,-1.17 -0.88,-1.28 -0.72,-1.38 -0.55,-1.45 -0.37,-1.52 -0.18,-1.54 0.00,-1.56 0.00,-1.56 L 0,-1.56 Z"></path></g><g transform="translate(351 27) rotate(0 -19 27)" stroke="none"><path fill="#000000" d="M -0.50,1.51 Q -0.50,1.51 -2.23,0.96 -3.96,0.42 -6.50,0.16 -9.05,-0.08 -10.85,0.34 -12.65,0.77 -15.13,1.77 -17.62,2.77 -20.08,4.02 -22.54,5.27 -23.98,7.35 -25.42,9.42 -26.63,12.54 -27.83,15.66 -29.25,19.07 -30.67,22.48 -31.52,26.12 -32.38,29.76 -32.75,33.28 -33.11,36.80 -33.27,39.74 -33.43,42.68 -33.50,45.64 -33.57,48.61 -33.54,50.44 -33.51,52.28 -33.12,53.36 -32.72,54.44 -32.75,54.64 -32.78,54.84 -32.85,55.03 -32.93,55.21 -33.05,55.38 -33.16,55.54 -33.32,55.68 -33.47,55.81 -33.65,55.90 -33.83,55.99 -34.03,56.04 -34.23,56.08 -34.43,56.08 -34.63,56.07 -34.83,56.02 -35.02,55.97 -35.20,55.87 -35.38,55.78 -35.53,55.64 -35.68,55.50 -35.79,55.34 -35.90,55.17 -35.97,54.98 -36.04,54.79 -36.06,54.59 -36.08,54.38 -37.92,53.16 -39.77,51.94 -39.87,51.63 -39.98,51.33 -39.98,51.00 -39.98,50.68 -39.88,50.37 -39.77,50.06 -39.58,49.80 -39.38,49.54 -39.11,49.36 -38.84,49.18 -38.53,49.09 -38.22,49.00 -37.90,49.02 -37.57,49.03 -37.27,49.15 -36.97,49.27 -36.72,49.48 -36.47,49.69 -36.30,49.97 -36.13,50.24 -36.06,50.56 -35.99,50.88 -36.02,51.20 -36.06,51.53 -36.19,51.82 -36.33,52.12 -36.55,52.35 -36.77,52.59 -37.06,52.74 -37.35,52.90 -37.67,52.95 -37.99,53.00 -38.31,52.95 -38.63,52.90 -38.92,52.75 -39.20,52.60 -39.43,52.36 -39.65,52.13 -39.79,51.83 -39.93,51.54 -39.96,51.22 -40.00,50.89 -39.93,50.58 -39.86,50.26 -39.70,49.98 -39.53,49.70 -39.28,49.49 -39.04,49.28 -38.73,49.16 -38.43,49.04 -38.11,49.02 -37.78,49.00 -37.47,49.08 -37.16,49.17 -36.89,49.35 -36.62,49.53 -36.42,49.79 -36.22,50.05 -36.22,50.05 -36.22,50.05 -35.65,51.83 -35.08,53.61 -33.90,54.03 -32.72,54.44 -32.75,54.64 -32.78,54.84 -32.85,55.03 -32.93,55.21 -33.05,55.38 -33.16,55.54 -33.32,55.68 -33.47,55.81 -33.65,55.90 -33.83,55.99 -34.03,56.04 -34.23,56.08 -34.43,56.08 -34.63,56.07 -34.83,56.02 -35.02,55.97 -35.20,55.87 -35.38,55.78 -35.53,55.64 -35.68,55.50 -35.79,55.34 -35.90,55.17 -35.97,54.98 -36.04,54.79 -36.06,54.59 -36.08,54.38 -36.24,53.32 -36.39,52.26 -36.31,50.40 -36.22,48.55 -36.15,45.54 -36.09,42.53 -35.93,39.53 -35.77,36.53 -35.38,32.84 -34.99,29.15 -34.08,25.30 -33.17,21.45 -31.78,18.06 -30.38,14.66 -29.03,11.24 -27.68,7.81 -25.82,5.33 -23.95,2.84 -21.34,1.46 -18.72,0.07 -16.03,-1.04 -13.34,-2.17 -11.08,-2.68 -8.82,-3.19 -5.88,-2.95 -2.93,-2.72 -1.21,-2.11 0.50,-1.51 0.67,-1.42 0.85,-1.34 0.99,-1.22 1.14,-1.10 1.26,-0.95 1.37,-0.79 1.45,-0.62 1.52,-0.44 1.55,-0.25 1.59,-0.06 1.57,0.12 1.56,0.31 1.49,0.49 1.43,0.68 1.33,0.84 1.23,1.00 1.09,1.13 0.95,1.27 0.79,1.36 0.62,1.46 0.44,1.51 0.25,1.57 0.06,1.57 -0.12,1.58 -0.31,1.54 -0.50,1.51 -0.50,1.51 L -0.50,1.51 Z"></path></g><g transform="translate(306 62) rotate(0 15 1)" stroke="none"><path fill="#000000" d="M 0,-2.15 Q 0,-2.15 2.01,-2.07 4.02,-1.99 6.31,-1.90 8.61,-1.81 11.12,-1.45 13.63,-1.09 15.85,-0.62 18.07,-0.15 19.53,-0.07 20.98,0.01 22.15,-0.00 23.32,-0.02 26.23,-1.03 29.13,-2.04 29.48,-2.12 29.83,-2.20 30.18,-2.17 30.54,-2.14 30.87,-2.00 31.20,-1.86 31.46,-1.61 31.73,-1.37 31.90,-1.06 32.08,-0.75 32.15,-0.40 32.21,-0.04 32.16,0.30 32.11,0.66 31.95,0.98 31.79,1.30 31.53,1.55 31.28,1.80 30.96,1.96 30.63,2.12 30.28,2.16 29.92,2.21 29.57,2.14 29.22,2.07 28.91,1.89 28.60,1.71 28.36,1.45 28.12,1.18 27.98,0.85 27.84,0.52 27.81,0.16 27.79,-0.19 27.88,-0.53 27.96,-0.88 28.16,-1.18 28.35,-1.48 28.63,-1.71 28.92,-1.93 29.25,-2.05 29.59,-2.17 29.95,-2.18 30.31,-2.19 30.65,-2.08 30.99,-1.97 31.28,-1.76 31.57,-1.55 31.78,-1.26 31.99,-0.97 32.09,-0.62 32.19,-0.28 32.18,0.07 32.17,0.43 32.04,0.76 31.92,1.10 31.69,1.38 31.47,1.65 31.16,1.84 30.86,2.04 30.86,2.04 30.86,2.04 28.13,3.02 25.40,4.01 24.24,3.90 23.09,3.80 21.83,3.63 20.58,3.46 19.03,3.20 17.49,2.94 15.36,2.59 13.23,2.24 10.92,2.02 8.60,1.81 6.31,1.90 4.02,1.99 2.01,2.07 0,2.15 -0.25,2.12 -0.51,2.09 -0.76,2.00 -1.00,1.91 -1.21,1.76 -1.43,1.61 -1.60,1.42 -1.77,1.22 -1.89,0.99 -2.01,0.76 -2.08,0.51 -2.14,0.26 -2.14,-0.00 -2.14,-0.26 -2.08,-0.51 -2.01,-0.76 -1.89,-0.99 -1.77,-1.22 -1.60,-1.42 -1.43,-1.61 -1.21,-1.76 -1.00,-1.91 -0.75,-2.00 -0.51,-2.09 -0.25,-2.12 0.00,-2.15 0.00,-2.15 L 0,-2.15 Z"></path></g><g transform="translate(348 87) rotate(0 12 -9.5)" stroke="none"><path fill="#000000" d="M -0.56,-2.26 Q -0.56,-2.26 0.55,-2.58 1.67,-2.90 3.67,-4.29 5.66,-5.68 6.21,-6.61 6.75,-7.54 7.70,-8.87 8.64,-10.20 8.93,-11.56 9.22,-12.92 9.37,-14.39 9.52,-15.86 9.58,-16.93 9.65,-17.99 8.51,-18.45 7.37,-18.91 5.99,-19.41 4.61,-19.92 3.51,-20.08 2.41,-20.25 1.16,-20.33 -0.08,-20.40 -2.73,-19.64 -5.38,-18.88 -6.48,-18.24 -7.58,-17.60 -7.82,-16.52 -8.05,-15.45 -8.35,-13.65 -8.65,-11.84 -8.53,-10.01 -8.42,-8.17 -8.06,-6.55 -7.70,-4.93 -7.26,-3.43 -6.82,-1.92 -5.16,-0.53 -3.50,0.86 -2.00,1.15 -0.49,1.44 2.02,1.12 4.53,0.81 7.25,-0.38 9.98,-1.57 13.26,-2.95 16.55,-4.33 18.83,-5.20 21.12,-6.07 22.95,-6.76 24.78,-7.45 27.38,-8.02 29.97,-8.59 32.33,-9.13 34.69,-9.68 34.97,-9.68 35.25,-9.69 35.51,-9.60 35.77,-9.52 36.00,-9.35 36.22,-9.19 36.38,-8.96 36.54,-8.74 36.61,-8.47 36.69,-8.21 36.68,-7.93 36.67,-7.65 36.57,-7.39 36.47,-7.14 36.30,-6.92 36.12,-6.71 35.89,-6.56 35.65,-6.42 35.38,-6.35 35.11,-6.29 34.84,-6.31 34.56,-6.34 34.31,-6.45 34.06,-6.56 33.85,-6.75 33.65,-6.94 33.52,-7.18 33.38,-7.42 33.33,-7.70 33.28,-7.97 33.33,-8.24 33.37,-8.52 33.49,-8.76 33.62,-9.01 33.82,-9.20 34.01,-9.40 34.26,-9.52 34.51,-9.64 34.79,-9.67 35.06,-9.70 35.33,-9.65 35.60,-9.59 35.84,-9.45 36.08,-9.32 36.26,-9.11 36.45,-8.90 36.55,-8.64 36.66,-8.39 36.68,-8.11 36.70,-7.84 36.63,-7.57 36.56,-7.30 36.41,-7.07 36.25,-6.84 36.04,-6.67 35.82,-6.50 35.56,-6.40 35.30,-6.31 35.30,-6.31 35.30,-6.31 32.96,-6.01 30.63,-5.71 28.23,-5.14 25.84,-4.57 24.03,-3.92 22.23,-3.28 20.02,-2.37 17.81,-1.45 14.58,0.00 11.35,1.47 8.21,2.91 5.07,4.36 1.91,4.83 -1.24,5.31 -3.62,4.76 -6.00,4.22 -7.37,3.04 -8.74,1.86 -9.61,0.53 -10.48,-0.79 -10.92,-2.47 -11.37,-4.16 -11.74,-6.00 -12.11,-7.84 -12.35,-10.07 -12.60,-12.30 -12.39,-14.66 -12.18,-17.03 -11.23,-18.99 -10.28,-20.95 -8.58,-22.03 -6.89,-23.11 -4.84,-23.96 -2.78,-24.81 -1.28,-25.05 0.21,-25.29 1.76,-25.16 3.31,-25.04 4.73,-24.73 6.16,-24.42 8.00,-23.81 9.85,-23.20 11.30,-22.20 12.74,-21.20 13.44,-19.75 14.13,-18.29 14.05,-16.84 13.97,-15.39 13.78,-13.66 13.60,-11.93 13.09,-9.81 12.58,-7.69 11.66,-6.25 10.74,-4.81 9.59,-3.27 8.44,-1.73 7.11,-0.82 5.78,0.09 4.35,0.92 2.92,1.75 1.74,2.01 0.56,2.26 0.28,2.30 0.00,2.33 -0.27,2.30 -0.55,2.27 -0.81,2.17 -1.07,2.07 -1.31,1.91 -1.54,1.75 -1.73,1.54 -1.92,1.33 -2.05,1.08 -2.18,0.83 -2.25,0.56 -2.32,0.28 -2.32,0.00 -2.32,-0.27 -2.25,-0.54 -2.18,-0.82 -2.05,-1.07 -1.92,-1.32 -1.74,-1.53 -1.55,-1.74 -1.32,-1.90 -1.09,-2.06 -0.83,-2.16 -0.56,-2.26 -0.56,-2.26 L -0.56,-2.26 Z"></path></g><g transform="translate(392 72) rotate(0 14.5 2)" stroke="none"><path fill="#000000" d="M 1.43,-1.72 Q 1.43,-1.72 3.09,-0.18 4.74,1.35 5.93,3.02 7.11,4.69 8.11,6.58 9.11,8.47 9.67,9.95 10.24,11.42 10.67,12.99 11.10,14.56 11.13,14.83 11.15,15.10 11.11,15.38 11.07,15.65 10.96,15.90 10.86,16.15 10.69,16.37 10.53,16.59 10.32,16.77 10.11,16.94 9.87,17.06 9.62,17.18 9.35,17.24 9.08,17.30 8.81,17.29 8.54,17.28 8.27,17.20 8.01,17.13 7.77,17.00 7.53,16.86 7.33,16.67 7.13,16.49 6.99,16.26 6.84,16.03 6.75,15.77 6.66,15.51 5.69,14.99 4.71,14.47 4.16,12.37 3.60,10.27 3.19,7.67 2.79,5.07 2.60,3.05 2.42,1.03 2.56,-0.59 2.70,-2.22 3.05,-3.57 3.40,-4.92 3.82,-6.10 4.25,-7.28 5.08,-8.75 5.91,-10.21 6.99,-11.34 8.06,-12.47 8.97,-13.06 9.87,-13.65 11.07,-13.98 12.27,-14.30 15.06,-14.08 17.84,-13.87 19.33,-13.74 20.82,-13.61 22.30,-13.25 23.78,-12.90 26.50,-12.71 29.21,-12.52 29.61,-12.42 30.00,-12.32 30.35,-12.10 30.69,-11.88 30.95,-11.56 31.21,-11.24 31.35,-10.85 31.49,-10.47 31.50,-10.05 31.51,-9.64 31.39,-9.25 31.26,-8.86 31.02,-8.53 30.78,-8.20 30.45,-7.96 30.11,-7.72 29.72,-7.60 29.33,-7.48 28.92,-7.49 28.51,-7.51 28.12,-7.65 27.74,-7.79 27.42,-8.05 27.10,-8.31 26.88,-8.65 26.66,-9.00 26.56,-9.40 26.47,-9.80 26.50,-10.21 26.54,-10.62 26.70,-10.99 26.86,-11.37 27.14,-11.67 27.41,-11.98 27.77,-12.18 28.13,-12.38 28.53,-12.45 28.93,-12.53 29.34,-12.47 29.75,-12.42 30.11,-12.23 30.48,-12.05 30.77,-11.76 31.06,-11.47 31.24,-11.10 31.42,-10.73 31.48,-10.32 31.53,-9.92 31.45,-9.52 31.37,-9.11 31.17,-8.76 30.97,-8.40 30.66,-8.13 30.35,-7.85 29.98,-7.69 29.60,-7.53 29.19,-7.50 28.78,-7.47 28.78,-7.47 28.78,-7.47 25.64,-7.77 22.51,-8.08 21.49,-8.39 20.46,-8.71 18.77,-8.80 17.08,-8.89 15.68,-9.07 14.27,-9.25 13.21,-9.26 12.14,-9.27 10.98,-8.58 9.82,-7.88 9.12,-6.71 8.43,-5.54 7.57,-3.60 6.70,-1.65 6.45,-0.50 6.20,0.64 6.45,2.46 6.69,4.29 7.29,6.67 7.89,9.06 8.31,11.17 8.73,13.27 9.92,13.91 11.10,14.56 11.13,14.83 11.15,15.10 11.11,15.38 11.07,15.65 10.96,15.90 10.86,16.15 10.69,16.37 10.53,16.59 10.32,16.77 10.11,16.94 9.87,17.06 9.62,17.18 9.35,17.24 9.08,17.30 8.81,17.29 8.54,17.28 8.27,17.20 8.01,17.13 7.77,17.00 7.53,16.86 7.33,16.67 7.14,16.49 6.99,16.26 6.84,16.03 6.75,15.77 6.66,15.51 6.57,14.07 6.48,12.63 6.19,11.45 5.90,10.27 4.88,8.61 3.86,6.94 3.01,5.67 2.15,4.39 0.35,3.06 -1.43,1.72 -1.62,1.52 -1.80,1.33 -1.94,1.09 -2.07,0.85 -2.14,0.59 -2.22,0.33 -2.22,0.06 -2.23,-0.20 -2.18,-0.46 -2.12,-0.73 -2.00,-0.97 -1.88,-1.22 -1.71,-1.42 -1.54,-1.63 -1.32,-1.79 -1.10,-1.95 -0.85,-2.06 -0.60,-2.16 -0.33,-2.20 -0.06,-2.24 0.20,-2.22 0.47,-2.19 0.72,-2.10 0.98,-2.02 1.21,-1.87 1.43,-1.72 1.43,-1.72 L 1.43,-1.72 Z"></path></g><g transform="translate(440 13) rotate(0 -1.5 29.5)" stroke="none"><path fill="#000000" d="M 1.78,-0.44 Q 1.78,-0.44 2.57,3.02 3.37,6.49 3.42,10.73 3.47,14.97 2.89,21.66 2.31,28.35 1.76,32.90 1.21,37.46 0.68,40.57 0.15,43.68 -0.36,46.43 -0.88,49.19 -1.08,51.17 -1.28,53.15 -1.58,54.71 -1.88,56.28 -1.97,57.23 -2.06,58.18 -2.12,58.40 -2.19,58.61 -2.31,58.81 -2.42,59.00 -2.58,59.16 -2.74,59.32 -2.93,59.44 -3.12,59.55 -3.34,59.62 -3.55,59.69 -3.77,59.70 -4.00,59.72 -4.22,59.68 -4.44,59.64 -4.65,59.55 -4.85,59.46 -5.03,59.32 -5.21,59.18 -5.35,59.00 -5.49,58.83 -5.58,58.62 -5.67,58.42 -5.71,58.20 -5.76,57.98 -5.74,57.75 -5.73,57.53 -6.86,55.65 -8.00,53.77 -8.07,53.43 -8.14,53.09 -8.10,52.75 -8.06,52.40 -7.91,52.09 -7.76,51.77 -7.52,51.52 -7.28,51.27 -6.97,51.11 -6.66,50.95 -6.32,50.90 -5.97,50.85 -5.63,50.91 -5.29,50.97 -4.98,51.13 -4.68,51.30 -4.44,51.55 -4.21,51.81 -4.06,52.12 -3.92,52.44 -3.89,52.79 -3.85,53.13 -3.93,53.47 -4.01,53.81 -4.19,54.10 -4.37,54.40 -4.64,54.62 -4.91,54.85 -5.23,54.97 -5.55,55.10 -5.90,55.11 -6.25,55.13 -6.58,55.03 -6.92,54.93 -7.20,54.74 -7.49,54.54 -7.69,54.26 -7.90,53.98 -8.01,53.65 -8.12,53.32 -8.11,52.97 -8.11,52.63 -8.00,52.30 -7.88,51.97 -7.67,51.70 -7.46,51.42 -7.17,51.23 -6.88,51.04 -6.54,50.95 -6.21,50.86 -5.86,50.88 -5.51,50.90 -5.19,51.04 -4.87,51.17 -4.61,51.39 -4.35,51.62 -4.17,51.92 -3.99,52.22 -3.99,52.22 -3.99,52.22 -3.40,54.00 -2.82,55.78 -2.44,56.98 -2.06,58.18 -2.12,58.40 -2.19,58.61 -2.31,58.81 -2.42,59.00 -2.58,59.16 -2.74,59.32 -2.93,59.44 -3.12,59.55 -3.34,59.62 -3.55,59.69 -3.77,59.70 -4.00,59.72 -4.22,59.68 -4.44,59.64 -4.65,59.55 -4.85,59.46 -5.03,59.32 -5.21,59.18 -5.35,59.00 -5.49,58.83 -5.58,58.62 -5.67,58.42 -5.71,58.20 -5.76,57.98 -5.74,57.75 -5.73,57.53 -5.36,56.49 -4.99,55.46 -4.54,54.15 -4.08,52.84 -3.85,50.77 -3.62,48.69 -3.13,45.95 -2.65,43.22 -2.16,40.17 -1.68,37.13 -1.19,32.61 -0.71,28.10 -0.21,21.57 0.29,15.03 0.18,11.16 0.07,7.30 -0.85,3.87 -1.78,0.44 -1.81,0.22 -1.83,0.00 -1.81,-0.21 -1.78,-0.43 -1.70,-0.64 -1.63,-0.84 -1.50,-1.03 -1.38,-1.21 -1.21,-1.36 -1.04,-1.50 -0.85,-1.61 -0.65,-1.71 -0.44,-1.77 -0.22,-1.82 -0.00,-1.82 0.21,-1.82 0.43,-1.77 0.64,-1.72 0.84,-1.61 1.03,-1.51 1.20,-1.36 1.37,-1.22 1.49,-1.04 1.62,-0.85 1.70,-0.65 1.78,-0.44 1.78,-0.44 L 1.78,-0.44 Z"></path></g><g transform="translate(427 40) rotate(0 15.5 6)" stroke="none"><path fill="#000000" d="M 0.57,-1.90 Q 0.57,-1.90 3.41,-0.95 6.26,-0.00 9.27,1.31 12.28,2.64 14.44,3.81 16.59,4.98 18.62,6.05 20.65,7.11 22.57,7.83 24.50,8.55 26.00,9.08 27.50,9.61 29.44,9.90 31.38,10.20 31.66,10.31 31.93,10.42 32.16,10.61 32.39,10.80 32.54,11.05 32.70,11.31 32.76,11.60 32.83,11.89 32.80,12.18 32.77,12.48 32.64,12.75 32.52,13.02 32.32,13.23 32.11,13.45 31.85,13.59 31.59,13.73 31.30,13.78 31.00,13.83 30.71,13.78 30.42,13.74 30.15,13.60 29.89,13.46 29.69,13.25 29.48,13.03 29.35,12.76 29.23,12.50 29.20,12.20 29.16,11.91 29.22,11.61 29.29,11.32 29.44,11.07 29.59,10.81 29.82,10.62 30.04,10.43 30.32,10.32 30.59,10.20 30.89,10.19 31.18,10.17 31.47,10.25 31.76,10.32 32.00,10.49 32.25,10.66 32.43,10.89 32.61,11.13 32.71,11.41 32.81,11.69 32.81,11.99 32.81,12.28 32.71,12.56 32.62,12.85 32.44,13.08 32.26,13.32 32.02,13.49 31.77,13.66 31.49,13.74 31.20,13.82 30.91,13.80 30.61,13.79 30.61,13.79 30.61,13.79 28.43,13.20 26.25,12.61 24.88,11.95 23.51,11.28 21.40,10.54 19.29,9.80 17.21,8.78 15.14,7.77 13.07,6.75 10.99,5.72 8.11,4.58 5.23,3.45 2.33,2.67 -0.57,1.90 -0.78,1.80 -1.00,1.70 -1.19,1.56 -1.38,1.41 -1.53,1.23 -1.68,1.04 -1.78,0.82 -1.88,0.61 -1.93,0.37 -1.97,0.14 -1.96,-0.09 -1.95,-0.33 -1.88,-0.56 -1.81,-0.79 -1.69,-1.00 -1.57,-1.20 -1.40,-1.37 -1.23,-1.54 -1.03,-1.67 -0.83,-1.80 -0.60,-1.87 -0.37,-1.94 -0.13,-1.96 0.09,-1.98 0.33,-1.94 0.57,-1.90 0.57,-1.90 L 0.57,-1.90 Z"></path></g><g transform="translate(464 86) rotate(0 0.00004999999998744897 0.00004999999998744897)" stroke="none"><path fill="#000000" d="M 1.57,-1.57 Q 1.57,-1.57 1.77,-1.27 1.98,-0.98 2.09,-0.64 2.20,-0.29 2.19,0.05 2.18,0.41 2.05,0.75 1.93,1.09 1.70,1.37 1.48,1.65 1.18,1.84 0.87,2.04 0.52,2.12 0.18,2.21 -0.17,2.18 -0.53,2.15 -0.86,2.01 -1.19,1.87 -1.46,1.63 -1.73,1.39 -1.90,1.07 -2.08,0.76 -2.15,0.41 -2.21,0.05 -2.17,-0.29 -2.12,-0.65 -1.96,-0.97 -1.80,-1.29 -1.54,-1.54 -1.29,-1.80 -0.97,-1.96 -0.65,-2.12 -0.29,-2.17 0.06,-2.21 0.41,-2.15 0.76,-2.08 1.07,-1.90 1.39,-1.73 1.63,-1.46 1.87,-1.19 2.01,-0.86 2.15,-0.53 2.18,-0.17 2.21,0.18 2.12,0.52 2.03,0.87 1.84,1.18 1.65,1.48 1.37,1.70 1.09,1.93 0.75,2.05 0.41,2.18 0.05,2.19 -0.30,2.20 -0.64,2.09 -0.98,1.98 -1.27,1.77 -1.57,1.56 -1.57,1.57 -1.57,1.57 -1.73,1.35 -1.90,1.14 -2.01,0.90 -2.12,0.66 -2.16,0.39 -2.21,0.13 -2.20,-0.13 -2.18,-0.40 -2.10,-0.65 -2.02,-0.91 -1.88,-1.14 -1.74,-1.36 -1.55,-1.55 -1.36,-1.74 -1.14,-1.88 -0.91,-2.02 -0.65,-2.10 -0.40,-2.18 -0.13,-2.20 0.13,-2.21 0.39,-2.16 0.66,-2.12 0.90,-2.01 1.14,-1.90 1.35,-1.73 1.57,-1.57 1.57,-1.57 L 1.57,-1.57 Z"></path></g><g transform="translate(494 62) rotate(0 -3 12.5)" stroke="none"><path fill="#000000" d="M 1.98,0.99 Q 1.98,0.99 1.44,2.16 0.90,3.32 0.42,4.38 -0.06,5.44 -0.26,6.95 -0.45,8.47 -0.62,10.34 -0.78,12.21 -0.92,14.44 -1.06,16.68 -1.39,18.64 -1.72,20.60 -1.73,22.38 -1.75,24.17 -1.81,24.42 -1.88,24.68 -2.00,24.91 -2.12,25.14 -2.30,25.34 -2.47,25.53 -2.69,25.68 -2.90,25.83 -3.15,25.92 -3.39,26.02 -3.65,26.05 -3.91,26.08 -4.18,26.05 -4.44,26.02 -4.68,25.92 -4.93,25.83 -5.14,25.68 -5.36,25.53 -5.53,25.34 -5.71,25.14 -5.83,24.91 -5.95,24.67 -6.01,24.42 -6.08,24.16 -6.08,23.90 -6.08,23.64 -7.19,20.59 -8.31,17.55 -8.34,17.16 -8.37,16.78 -8.27,16.41 -8.17,16.03 -7.96,15.71 -7.75,15.39 -7.45,15.15 -7.15,14.91 -6.78,14.78 -6.42,14.65 -6.04,14.65 -5.65,14.64 -5.28,14.76 -4.92,14.87 -4.61,15.10 -4.30,15.33 -4.07,15.64 -3.85,15.96 -3.74,16.33 -3.63,16.70 -3.65,17.08 -3.66,17.47 -3.80,17.83 -3.93,18.19 -4.18,18.48 -4.42,18.78 -4.75,18.99 -5.08,19.19 -5.45,19.28 -5.83,19.37 -6.21,19.33 -6.59,19.30 -6.94,19.14 -7.30,18.99 -7.58,18.73 -7.86,18.47 -8.05,18.13 -8.24,17.79 -8.31,17.41 -8.37,17.04 -8.32,16.65 -8.26,16.27 -8.09,15.93 -7.91,15.59 -7.64,15.32 -7.36,15.05 -7.02,14.88 -6.67,14.71 -6.29,14.66 -5.91,14.62 -5.53,14.69 -5.15,14.77 -4.82,14.96 -4.49,15.15 -4.23,15.44 -3.98,15.73 -3.83,16.09 -3.68,16.44 -3.68,16.44 -3.68,16.44 -3.34,19.23 -3.00,22.02 -2.37,23.09 -1.75,24.17 -1.81,24.42 -1.88,24.68 -2.00,24.91 -2.12,25.14 -2.29,25.34 -2.47,25.53 -2.69,25.68 -2.90,25.83 -3.15,25.92 -3.39,26.02 -3.65,26.05 -3.91,26.08 -4.18,26.05 -4.44,26.02 -4.68,25.92 -4.93,25.83 -5.14,25.68 -5.36,25.53 -5.53,25.34 -5.71,25.14 -5.83,24.91 -5.95,24.67 -6.01,24.42 -6.08,24.16 -6.08,23.90 -6.08,23.64 -5.95,22.91 -5.81,22.18 -5.59,21.08 -5.37,19.99 -5.09,18.30 -4.81,16.61 -4.87,14.31 -4.93,12.01 -4.90,9.97 -4.87,7.94 -4.61,5.67 -4.36,3.40 -3.78,2.33 -3.20,1.27 -2.59,0.13 -1.98,-0.99 -1.83,-1.21 -1.68,-1.43 -1.49,-1.61 -1.29,-1.80 -1.06,-1.92 -0.82,-2.05 -0.56,-2.12 -0.31,-2.19 -0.04,-2.20 0.22,-2.20 0.48,-2.14 0.74,-2.08 0.98,-1.96 1.22,-1.84 1.42,-1.67 1.63,-1.50 1.78,-1.28 1.94,-1.06 2.04,-0.82 2.14,-0.57 2.17,-0.30 2.21,-0.04 2.19,0.22 2.16,0.48 2.07,0.74 1.98,0.99 1.98,0.99 L 1.98,0.99 Z"></path></g><g transform="translate(481 33) rotate(0 10.5 1)" stroke="none"><path fill="#000000" d="M -0.37,-2.22 Q -0.37,-2.22 1.39,-2.48 3.15,-2.73 5.42,-2.20 7.69,-1.67 9.40,-1.17 11.10,-0.67 12.27,-0.55 13.44,-0.43 14.75,-0.06 16.05,0.29 18.64,0.47 21.22,0.65 21.59,0.75 21.96,0.85 22.28,1.06 22.60,1.27 22.83,1.57 23.07,1.87 23.19,2.23 23.32,2.59 23.32,2.97 23.32,3.35 23.21,3.71 23.09,4.08 22.86,4.38 22.63,4.69 22.32,4.91 22.01,5.12 21.64,5.23 21.27,5.33 20.89,5.32 20.51,5.30 20.16,5.16 19.80,5.03 19.51,4.78 19.22,4.54 19.02,4.22 18.82,3.89 18.73,3.52 18.64,3.15 18.68,2.77 18.72,2.39 18.87,2.04 19.03,1.69 19.29,1.41 19.55,1.13 19.88,0.95 20.22,0.77 20.59,0.70 20.97,0.64 21.35,0.70 21.72,0.75 22.06,0.93 22.40,1.10 22.67,1.38 22.93,1.65 23.10,2.00 23.26,2.34 23.30,2.72 23.35,3.10 23.27,3.47 23.19,3.84 23.00,4.17 22.81,4.50 22.52,4.75 22.23,5.00 21.88,5.15 21.53,5.29 21.15,5.32 20.76,5.34 20.77,5.34 20.77,5.34 16.76,4.58 12.76,3.82 11.36,3.54 9.97,3.25 8.35,2.79 6.73,2.33 5.23,1.96 3.74,1.58 2.05,1.90 0.37,2.22 0.09,2.24 -0.17,2.25 -0.43,2.19 -0.70,2.14 -0.95,2.03 -1.20,1.91 -1.41,1.74 -1.62,1.57 -1.78,1.35 -1.95,1.13 -2.06,0.88 -2.16,0.63 -2.21,0.36 -2.25,0.09 -2.23,-0.17 -2.21,-0.44 -2.13,-0.70 -2.04,-0.96 -1.90,-1.19 -1.75,-1.42 -1.56,-1.61 -1.36,-1.80 -1.12,-1.93 -0.89,-2.07 -0.63,-2.15 -0.37,-2.22 -0.37,-2.22 L -0.37,-2.22 Z"></path></g><g transform="translate(535 61) rotate(0 -9 8.5)" stroke="none"><path fill="#000000" d="M -2.01,0 Q -2.01,0 -2.08,-1.11 -2.14,-2.23 -2.66,-3.18 -3.17,-4.13 -5.01,-5.06 -6.84,-5.99 -7.91,-5.62 -8.99,-5.24 -10.95,-4.43 -12.91,-3.61 -15.25,-2.44 -17.58,-1.27 -18.98,0.19 -20.39,1.66 -21.23,3.09 -22.07,4.53 -22.37,6.10 -22.68,7.68 -22.80,9.22 -22.91,10.75 -22.66,12.08 -22.41,13.41 -21.79,14.68 -21.18,15.95 -20.38,17.35 -19.58,18.76 -18.05,20.07 -16.51,21.39 -15.03,22.23 -13.54,23.07 -11.95,23.37 -10.35,23.68 -8.55,23.85 -6.75,24.02 -5.38,23.53 -4.02,23.04 -2.71,22.12 -1.39,21.21 -0.64,19.63 0.11,18.06 1.10,15.61 2.09,13.17 3.12,10.67 4.14,8.17 4.52,6.35 4.90,4.53 4.96,3.44 5.02,2.36 4.32,1.16 3.61,-0.03 2.15,-0.92 0.68,-1.81 -0.67,-2.52 -2.03,-3.22 -2.21,-3.37 -2.40,-3.51 -2.54,-3.70 -2.69,-3.88 -2.78,-4.10 -2.88,-4.31 -2.92,-4.54 -2.97,-4.77 -2.95,-5.01 -2.94,-5.24 -2.87,-5.47 -2.80,-5.69 -2.68,-5.89 -2.56,-6.09 -2.39,-6.26 -2.23,-6.43 -2.02,-6.55 -1.82,-6.67 -1.60,-6.74 -1.37,-6.81 -1.14,-6.83 -0.91,-6.84 -0.67,-6.80 -0.44,-6.76 -0.23,-6.66 -0.01,-6.56 0.82,-3.45 1.67,-0.35 1.68,-0.07 1.69,0.20 1.62,0.46 1.54,0.73 1.38,0.96 1.22,1.18 1.00,1.35 0.78,1.51 0.52,1.60 0.25,1.68 -0.01,1.68 -0.29,1.68 -0.55,1.59 -0.81,1.50 -1.03,1.33 -1.25,1.16 -1.40,0.93 -1.55,0.70 -1.63,0.43 -1.70,0.16 -1.68,-0.10 -1.66,-0.38 -1.56,-0.64 -1.45,-0.89 -1.27,-1.10 -1.09,-1.31 -0.85,-1.45 -0.61,-1.59 -0.34,-1.65 -0.07,-1.70 0.19,-1.67 0.47,-1.64 0.72,-1.52 0.97,-1.40 1.17,-1.21 1.37,-1.02 1.49,-0.77 1.62,-0.52 1.66,-0.25 1.70,0.01 1.66,0.29 1.61,0.56 1.48,0.80 1.34,1.04 1.14,1.23 0.94,1.42 0.69,1.53 0.43,1.65 0.16,1.67 -0.11,1.70 -0.38,1.64 -0.64,1.58 -0.88,1.43 -1.12,1.29 -1.29,1.07 -1.47,0.86 -1.57,0.60 -1.67,0.34 -1.67,0.35 -1.67,0.35 -1.85,-1.43 -2.03,-3.22 -2.21,-3.37 -2.40,-3.51 -2.54,-3.70 -2.69,-3.88 -2.78,-4.09 -2.88,-4.31 -2.92,-4.54 -2.97,-4.77 -2.95,-5.01 -2.94,-5.24 -2.87,-5.47 -2.80,-5.69 -2.68,-5.89 -2.56,-6.09 -2.39,-6.26 -2.23,-6.43 -2.02,-6.55 -1.82,-6.67 -1.60,-6.74 -1.37,-6.81 -1.14,-6.83 -0.91,-6.84 -0.67,-6.80 -0.44,-6.76 -0.23,-6.66 -0.01,-6.56 1.29,-5.78 2.60,-4.99 4.71,-3.72 6.83,-2.46 7.64,0.22 8.44,2.91 8.15,4.04 7.85,5.17 7.38,7.21 6.91,9.25 5.95,11.78 4.99,14.30 4.02,16.92 3.05,19.54 1.89,21.75 0.73,23.96 -1.10,25.20 -2.95,26.44 -4.95,26.96 -6.96,27.48 -9.02,27.31 -11.09,27.15 -13.17,26.67 -15.26,26.18 -17.03,25.17 -18.80,24.15 -20.88,22.46 -22.95,20.77 -23.86,19.15 -24.78,17.53 -25.50,15.75 -26.21,13.97 -26.39,12.18 -26.57,10.39 -26.34,8.66 -26.11,6.92 -25.60,4.85 -25.09,2.77 -24.02,1.04 -22.95,-0.69 -21.21,-2.62 -19.47,-4.56 -17.10,-5.99 -14.74,-7.42 -12.42,-8.65 -10.09,-9.89 -7.84,-10.29 -5.59,-10.69 -4.19,-10.18 -2.79,-9.68 -1.60,-8.89 -0.40,-8.10 0.23,-6.98 0.87,-5.87 1.51,-4.11 2.14,-2.36 2.08,-1.18 2.01,0 1.98,0.24 1.95,0.48 1.87,0.71 1.78,0.93 1.64,1.13 1.51,1.33 1.32,1.49 1.14,1.66 0.93,1.77 0.71,1.88 0.47,1.94 0.24,2.00 -0.00,2.00 -0.24,2.00 -0.47,1.94 -0.71,1.88 -0.93,1.77 -1.14,1.66 -1.32,1.49 -1.51,1.33 -1.64,1.13 -1.78,0.93 -1.87,0.71 -1.95,0.48 -1.98,0.24 -2.01,-0.00 -2.01,-0.00 L -2.01,0 Z"></path></g><g transform="translate(59 31) rotate(0 -6.5 17)" stroke="none"><path fill="#000000" d="M 0.64,1.71 Q 0.64,1.71 -1.68,2.50 -4.00,3.30 -6.67,4.46 -9.34,5.62 -13.10,7.26 -16.85,8.90 -20.78,10.46 -24.70,12.02 -28.32,13.80 -31.95,15.58 -35.54,17.21 -39.14,18.84 -41.43,20.34 -43.72,21.84 -44.57,22.80 -45.42,23.76 -43.31,24.39 -41.20,25.03 -36.22,25.99 -31.24,26.94 -24.79,27.96 -18.34,28.97 -13.02,29.70 -7.69,30.44 -3.46,30.76 0.77,31.08 4.62,31.52 8.48,31.96 11.51,32.15 14.54,32.34 17.26,32.42 19.98,32.51 21.72,32.47 23.45,32.43 24.76,32.34 26.07,32.25 28.35,32.31 30.62,32.38 33.31,32.28 36.00,32.18 36.29,32.22 36.58,32.27 36.84,32.41 37.10,32.55 37.30,32.76 37.50,32.98 37.63,33.24 37.75,33.51 37.78,33.80 37.81,34.10 37.75,34.38 37.68,34.67 37.53,34.92 37.38,35.17 37.15,35.36 36.93,35.56 36.66,35.66 36.38,35.77 36.09,35.79 35.80,35.80 35.51,35.72 35.23,35.64 34.99,35.48 34.74,35.31 34.56,35.08 34.39,34.84 34.29,34.57 34.20,34.29 34.20,33.99 34.20,33.70 34.29,33.42 34.39,33.14 34.57,32.91 34.75,32.67 34.99,32.51 35.23,32.34 35.52,32.26 35.80,32.19 36.10,32.20 36.39,32.22 36.66,32.33 36.94,32.44 37.16,32.63 37.38,32.82 37.53,33.07 37.69,33.32 37.75,33.61 37.81,33.90 37.78,34.19 37.75,34.48 37.62,34.75 37.50,35.02 37.30,35.23 37.09,35.45 36.83,35.58 36.57,35.72 36.28,35.77 35.99,35.81 35.99,35.81 35.99,35.81 33.30,35.71 30.62,35.60 28.32,35.65 26.03,35.70 24.71,35.58 23.40,35.46 21.65,35.36 19.91,35.26 17.14,35.20 14.38,35.13 11.28,34.97 8.18,34.81 4.37,34.42 0.56,34.03 -3.76,33.76 -8.09,33.49 -13.45,32.84 -18.82,32.18 -25.33,31.27 -31.85,30.37 -37.08,29.51 -42.31,28.65 -45.22,27.79 -48.14,26.92 -48.89,25.88 -49.65,24.84 -48.62,23.13 -47.58,21.42 -46.41,20.49 -45.23,19.55 -42.76,17.93 -40.30,16.32 -36.75,14.68 -33.21,13.04 -29.50,11.18 -25.80,9.32 -21.94,7.73 -18.09,6.14 -14.37,4.44 -10.66,2.73 -7.92,1.44 -5.19,0.14 -2.91,-0.78 -0.64,-1.71 -0.42,-1.76 -0.21,-1.81 0.00,-1.81 0.22,-1.81 0.44,-1.76 0.65,-1.70 0.84,-1.60 1.04,-1.50 1.20,-1.35 1.37,-1.20 1.49,-1.02 1.62,-0.84 1.69,-0.63 1.77,-0.43 1.80,-0.21 1.82,0.00 1.80,0.22 1.77,0.44 1.69,0.65 1.61,0.85 1.49,1.03 1.36,1.21 1.19,1.36 1.03,1.50 0.83,1.61 0.64,1.71 0.64,1.71 L 0.64,1.71 Z"></path></g><g transform="translate(586 39) rotate(0 27.5 20)" stroke="none"><path fill="#000000" d="M 0.98,-1.64 Q 0.98,-1.64 2.43,-0.79 3.87,0.04 5.79,1.01 7.71,1.98 11.45,3.89 15.19,5.79 21.28,8.02 27.37,10.24 32.33,12.38 37.29,14.52 40.98,15.40 44.67,16.27 46.57,16.62 48.46,16.97 49.54,17.01 50.62,17.06 51.85,17.36 53.07,17.66 54.24,18.09 55.41,18.52 55.78,20.71 56.15,22.89 53.66,24.10 51.17,25.31 47.52,26.55 43.87,27.79 40.29,28.86 36.71,29.93 32.97,31.49 29.23,33.04 25.90,34.55 22.57,36.06 20.00,37.27 17.42,38.48 16.14,39.33 14.85,40.19 12.62,40.40 10.38,40.61 10.14,40.47 9.90,40.33 9.72,40.12 9.53,39.91 9.42,39.65 9.32,39.39 9.30,39.12 9.28,38.84 9.35,38.57 9.42,38.30 9.57,38.06 9.72,37.83 9.94,37.66 10.16,37.48 10.42,37.39 10.69,37.30 10.97,37.29 11.25,37.29 11.51,37.37 11.78,37.46 12.00,37.62 12.23,37.79 12.39,38.02 12.55,38.24 12.63,38.51 12.71,38.78 12.70,39.06 12.69,39.34 12.59,39.60 12.49,39.86 12.31,40.08 12.13,40.29 11.90,40.44 11.66,40.59 11.39,40.65 11.12,40.72 10.84,40.69 10.56,40.67 10.31,40.55 10.05,40.44 9.84,40.25 9.64,40.06 9.50,39.82 9.37,39.57 9.32,39.30 9.27,39.02 9.31,38.75 9.35,38.47 9.48,38.22 9.60,37.97 9.80,37.78 10.00,37.58 10.25,37.46 10.51,37.34 10.78,37.31 11.06,37.27 11.33,37.33 11.61,37.38 11.61,37.38 11.61,37.38 12.41,37.39 13.22,37.40 14.69,36.63 16.16,35.86 18.73,34.59 21.29,33.33 24.64,31.73 27.99,30.14 31.84,28.43 35.69,26.73 39.16,25.55 42.63,24.37 46.08,23.02 49.54,21.66 51.60,20.84 53.66,20.01 53.61,21.09 53.57,22.17 51.84,21.32 50.12,20.46 49.00,20.18 47.88,19.90 45.95,19.49 44.02,19.09 40.07,18.18 36.12,17.28 31.22,15.23 26.31,13.19 20.02,10.98 13.73,8.77 9.98,6.99 6.22,5.22 4.04,4.31 1.87,3.40 0.44,2.52 -0.98,1.64 -1.16,1.50 -1.35,1.36 -1.49,1.17 -1.63,0.99 -1.73,0.78 -1.82,0.57 -1.87,0.34 -1.91,0.12 -1.90,-0.10 -1.88,-0.33 -1.82,-0.56 -1.75,-0.78 -1.63,-0.97 -1.51,-1.17 -1.35,-1.34 -1.18,-1.50 -0.99,-1.62 -0.79,-1.74 -0.57,-1.81 -0.35,-1.88 -0.12,-1.90 0.10,-1.91 0.33,-1.87 0.56,-1.83 0.77,-1.73 0.98,-1.64 0.98,-1.64 L 0.98,-1.64 Z"></path></g><g transform="translate(586 19) rotate(0 -17.5 41.5)" stroke="none"><path fill="#000000" d="M 1.32,1.06 Q 1.32,1.06 0.19,2.49 -0.94,3.93 -2.23,6.91 -3.51,9.89 -4.70,12.67 -5.88,15.44 -6.65,18.25 -7.43,21.07 -8.36,23.78 -9.30,26.50 -10.29,29.09 -11.27,31.68 -11.96,34.15 -12.64,36.62 -13.56,38.65 -14.47,40.69 -15.04,42.13 -15.61,43.58 -15.77,45.40 -15.92,47.21 -16.63,48.53 -17.33,49.85 -18.67,51.22 -20.01,52.59 -20.98,54.00 -21.95,55.42 -23.27,57.46 -24.59,59.51 -25.24,61.01 -25.89,62.51 -26.45,63.81 -27.01,65.11 -27.51,66.26 -28.02,67.40 -28.51,68.86 -29.00,70.31 -29.53,71.48 -30.07,72.65 -30.59,74.41 -31.12,76.17 -31.52,77.52 -31.92,78.87 -33.31,79.01 -34.71,79.14 -34.23,79.11 -33.76,79.07 -33.30,79.18 -32.84,79.30 -32.44,79.55 -32.03,79.81 -31.74,80.18 -31.44,80.55 -31.27,80.99 -31.11,81.44 -31.10,81.91 -31.08,82.39 -31.22,82.84 -31.36,83.30 -31.64,83.68 -31.92,84.07 -32.30,84.35 -32.69,84.63 -33.14,84.77 -33.60,84.91 -34.07,84.89 -34.55,84.88 -34.99,84.72 -35.44,84.55 -35.81,84.26 -36.18,83.96 -36.44,83.56 -36.69,83.16 -36.81,82.70 -36.92,82.24 -36.88,81.76 -36.85,81.29 -36.66,80.85 -36.47,80.41 -36.15,80.06 -35.84,79.71 -35.42,79.47 -35.01,79.24 -34.54,79.15 -34.08,79.06 -33.61,79.12 -33.13,79.19 -32.71,79.40 -32.28,79.61 -31.95,79.94 -31.61,80.28 -31.40,80.71 -31.19,81.13 -31.12,81.60 -31.06,82.07 -31.15,82.54 -31.24,83.01 -31.47,83.42 -31.70,83.83 -32.06,84.15 -32.41,84.47 -32.85,84.66 -33.28,84.85 -33.28,84.85 -33.28,84.85 -35.41,81.62 -37.54,78.40 -36.95,76.90 -36.37,75.41 -35.75,74.19 -35.14,72.97 -34.31,70.93 -33.48,68.89 -32.95,67.10 -32.42,65.32 -31.87,64.25 -31.32,63.18 -30.76,61.97 -30.19,60.77 -29.56,59.08 -28.92,57.40 -27.96,55.32 -27.00,53.25 -25.62,51.87 -24.24,50.50 -22.52,48.98 -20.81,47.46 -20.05,46.16 -19.30,44.86 -18.87,43.56 -18.43,42.27 -17.69,40.92 -16.95,39.57 -16.12,37.73 -15.29,35.89 -14.59,33.29 -13.89,30.70 -12.95,28.14 -12.01,25.58 -11.14,22.95 -10.27,20.31 -9.49,17.29 -8.71,14.28 -7.60,11.46 -6.48,8.64 -5.07,5.22 -3.65,1.81 -2.49,0.37 -1.32,-1.06 -1.17,-1.20 -1.03,-1.34 -0.85,-1.45 -0.68,-1.55 -0.48,-1.61 -0.28,-1.67 -0.08,-1.68 0.11,-1.69 0.32,-1.65 0.52,-1.61 0.70,-1.52 0.89,-1.44 1.05,-1.31 1.21,-1.18 1.33,-1.02 1.46,-0.86 1.54,-0.67 1.62,-0.48 1.66,-0.28 1.69,-0.08 1.68,0.11 1.66,0.32 1.60,0.51 1.54,0.71 1.43,0.88 1.32,1.06 1.32,1.06 L 1.32,1.06 Z"></path></g></svg>