<svg version="1.1" xmlns="http://www.w3.org/2000/svg" viewBox="0 0 241.66928354429388 172.00515121468698" width="241.66928354429388" height="172.00515121468698">
  <!-- svg-source:excalidraw -->
  
  <defs>
    <style>
      @font-face {
        font-family: "Virgil";
        src: url("https://excalidraw.com/Virgil.woff2");
      }
      @font-face {
        font-family: "Cascadia";
        src: url("https://excalidraw.com/Cascadia.woff2");
      }
    </style>
  </defs>
  <g stroke-linecap="round" transform="translate(10 10) rotate(0 110.83464177214694 76.00257560734349)"><path d="M0 0 C0 0, 0 0, 0 0 M0 0 C0 0, 0 0, 0 0 M0.27 24.08 C8.35 14.79, 16.43 5.49, 21.26 -0.07 M0.27 24.08 C8.36 14.78, 16.45 5.47, 21.26 -0.07 M-0.12 48.92 C8.48 39.03, 17.08 29.13, 42.52 -0.14 M-0.12 48.92 C11.59 35.44, 23.31 21.96, 42.52 -0.14 M0.14 73 C22.36 47.44, 44.57 21.89, 63.78 -0.21 M0.14 73 C22.6 47.16, 45.06 21.32, 63.78 -0.21 M-0.25 97.84 C19.37 75.27, 38.98 52.71, 85.04 -0.28 M-0.25 97.84 C25.39 68.34, 51.03 38.85, 85.04 -0.28 M0.02 121.92 C26.88 91.02, 53.74 60.12, 106.3 -0.34 M0.02 121.92 C35.63 80.95, 71.25 39.98, 106.3 -0.34 M0.29 146 C47.37 91.84, 94.45 37.67, 126.91 0.34 M0.29 146 C28.12 113.98, 55.95 81.96, 126.91 0.34 M9.08 160.27 C54.8 107.67, 100.53 55.07, 148.17 0.27 M9.08 160.27 C61.03 100.51, 112.97 40.76, 148.17 0.27 M30.34 160.2 C84.89 97.44, 139.45 34.69, 169.43 0.2 M30.34 160.2 C69.22 115.47, 108.11 70.74, 169.43 0.2 M51.6 160.13 C107.12 96.26, 162.64 32.4, 190.69 0.13 M51.6 160.13 C106.64 96.82, 161.67 33.51, 190.69 0.13 M72.86 160.06 C113.91 112.84, 154.97 65.61, 211.95 0.06 M72.86 160.06 C123.34 101.99, 173.82 43.92, 211.95 0.06 M94.12 159.99 C144.32 102.25, 194.52 44.5, 227.96 6.03 M94.12 159.99 C136.32 111.45, 178.52 62.9, 227.96 6.03 M115.38 159.93 C140.63 130.88, 165.87 101.84, 228.22 30.12 M115.38 159.93 C147.99 122.41, 180.6 84.9, 228.22 30.12 M136.64 159.86 C169.39 122.19, 202.14 84.51, 228.49 54.2 M136.64 159.86 C167.12 124.8, 197.59 89.74, 228.49 54.2 M157.9 159.79 C183.18 130.71, 208.46 101.63, 228.1 79.03 M157.9 159.79 C179.85 134.54, 201.79 109.3, 228.1 79.03 M179.16 159.72 C195.54 140.88, 211.91 122.05, 228.37 103.12 M179.16 159.72 C190.51 146.66, 201.86 133.61, 228.37 103.12 M199.77 160.4 C206.13 153.09, 212.49 145.77, 227.98 127.95 M199.77 160.4 C206.11 153.11, 212.45 145.82, 227.98 127.95 M0.21 152.19 C0.21 152.19, 0.21 152.19, 0.21 152.19 M0.21 152.19 C0.21 152.19, 0.21 152.19, 0.21 152.19 M24.29 151.92 C15.11 143.94, 5.93 135.96, 0.14 130.93 M24.29 151.92 C18.2 146.63, 12.11 141.33, 0.14 130.93 M49.13 152.31 C35.8 140.73, 22.48 129.15, 0.07 109.67 M49.13 152.31 C32.13 137.53, 15.13 122.76, 0.07 109.67 M73.21 152.04 C49.54 131.47, 25.87 110.89, 0 88.41 M73.21 152.04 C47.02 129.28, 20.83 106.51, 0 88.41 M97.29 151.78 C62.45 121.49, 27.62 91.21, -0.07 67.15 M97.29 151.78 C61.84 120.96, 26.38 90.14, -0.07 67.15 M122.13 152.17 C74 110.33, 25.87 68.5, -0.14 45.89 M122.13 152.17 C80.55 116.02, 38.97 79.88, -0.14 45.89 M146.21 151.9 C104.3 115.47, 62.4 79.05, -0.21 24.62 M146.21 151.9 C107.38 118.15, 68.55 84.4, -0.21 24.62 M171.04 152.29 C125.06 112.32, 79.08 72.34, -0.27 3.36 M171.04 152.29 C113.84 102.57, 56.64 52.84, -0.27 3.36 M195.13 152.02 C122.2 88.63, 49.27 25.24, 8.71 -10.02 M195.13 152.02 C145.78 109.13, 96.44 66.24, 8.71 -10.02 M219.21 151.76 C169.95 108.94, 120.7 66.13, 32.79 -10.29 M219.21 151.76 C161.48 101.57, 103.75 51.39, 32.79 -10.29 M231.21 140.99 C179.77 96.27, 128.32 51.55, 57.63 -9.9 M231.21 140.99 C168.07 86.11, 104.93 31.22, 57.63 -9.9 M231.14 119.73 C195.78 89, 160.42 58.26, 81.71 -10.17 M231.14 119.73 C175.25 71.15, 119.35 22.56, 81.71 -10.17 M231.08 98.47 C204.38 75.27, 177.68 52.06, 106.55 -9.78 M231.08 98.47 C200.03 71.48, 168.98 44.49, 106.55 -9.78 M231.01 77.21 C202.87 52.76, 174.73 28.3, 130.63 -10.04 M231.01 77.21 C203.96 53.71, 176.92 30.2, 130.63 -10.04 M230.94 55.95 C212.12 39.6, 193.3 23.24, 154.71 -10.31 M230.94 55.95 C200.88 29.82, 170.81 3.69, 154.71 -10.31 M230.87 34.69 C219.12 24.48, 207.37 14.26, 179.55 -9.92 M230.87 34.69 C216.8 22.46, 202.73 10.23, 179.55 -9.92 M231.55 14.09 C223.61 7.18, 215.66 0.27, 203.63 -10.18 M231.55 14.09 C221.57 5.41, 211.58 -3.28, 203.63 -10.18" stroke="#868e96" stroke-width="2" fill="none"></path><path d="M0 0 C51.93 0, 103.87 0, 221.67 0 M0 0 C72.13 0, 144.26 0, 221.67 0 M221.67 0 C221.67 43.86, 221.67 87.72, 221.67 152.01 M221.67 0 C221.67 54.24, 221.67 108.48, 221.67 152.01 M221.67 152.01 C172.65 152.01, 123.64 152.01, 0 152.01 M221.67 152.01 C156.39 152.01, 91.12 152.01, 0 152.01 M0 152.01 C0 119.12, 0 86.24, 0 0 M0 152.01 C0 94.76, 0 37.52, 0 0" stroke="#0000" stroke-width="4" fill="none"></path></g></svg>