<svg version="1.1" xmlns="http://www.w3.org/2000/svg" viewBox="0 0 186.06516051907562 159.0261261983649" width="186.06516051907562" height="159.0261261983649">
  <!-- svg-source:excalidraw -->
  
  <defs>
    <style>
      @font-face {
        font-family: "Virgil";
        src: url("https://excalidraw.com/Virgil.woff2");
      }
      @font-face {
        font-family: "Cascadia";
        src: url("https://excalidraw.com/Cascadia.woff2");
      }
    </style>
  </defs>
  <g stroke-linecap="round" transform="translate(10 10) rotate(0 83.03258025953781 69.51306309918245)"><path d="M8.6 8.8 C8.6 8.8, 8.6 8.8, 8.6 8.8 M8.6 8.8 C8.6 8.8, 8.6 8.8, 8.6 8.8 M8.21 33.63 C15.72 21.03, 28.57 11.21, 36.42 1.18 M8.21 33.63 C18.15 22.08, 28.55 7.86, 36.42 1.18 M8.47 57.72 C23.24 36, 41.4 24.97, 57.68 1.11 M8.47 57.72 C21.23 40.01, 38.7 26.55, 57.68 1.11 M8.08 82.55 C30.04 54.75, 53.74 34.18, 78.28 1.8 M8.08 82.55 C35.99 52.39, 65.21 21.05, 78.28 1.8 M2.44 113.43 C43.61 68.25, 74.2 30.35, 99.54 1.73 M2.44 113.43 C30.38 78.67, 56.33 47.88, 99.54 1.73 M8.61 130.71 C34.23 100.58, 56.96 71.32, 120.8 1.66 M8.61 130.71 C44.66 88.47, 80.08 47.2, 120.8 1.66 M23.97 137.44 C61.12 96.43, 97.64 56.84, 141.4 2.35 M23.97 137.44 C56.77 104.31, 86.63 68.81, 141.4 2.35 M36.7 147.18 C70.62 111.59, 96.33 78.73, 156.76 9.07 M36.7 147.18 C79.31 98.95, 121.45 51.04, 156.76 9.07 M57.96 147.11 C95.93 98.78, 139.53 50.43, 166.87 21.83 M57.96 147.11 C88.4 113.84, 119.48 76.78, 166.87 21.83 M78.57 147.8 C111.33 110.17, 135.6 76.71, 172.38 39.87 M78.57 147.8 C101.3 123.66, 124.84 99.32, 172.38 39.87 M99.83 147.73 C114.66 128.77, 128.61 113.79, 171.99 64.71 M99.83 147.73 C129.77 112.22, 154.87 83.07, 171.99 64.71 M121.09 147.66 C132.15 135.26, 144.72 116.71, 171.6 89.55 M121.09 147.66 C135.25 133.2, 147.55 118.16, 171.6 89.55 M149.56 139.29 C150.7 132.16, 158.77 128.99, 169.9 115.89 M149.56 139.29 C153.72 132.84, 159.49 127.57, 169.9 115.89 M8.64 130.29 C8.64 130.29, 8.64 130.29, 8.64 130.29 M8.64 130.29 C8.64 130.29, 8.64 130.29, 8.64 130.29 M33.48 130.68 C21.99 124.73, 17.08 116.51, 5.55 106.41 M33.48 130.68 C28.05 126.73, 21.92 121.89, 5.55 106.41 M58.31 131.07 C43 119.33, 33.19 108.33, 5.48 85.15 M58.31 131.07 C40.19 115.66, 24.41 102.6, 5.48 85.15 M82.39 130.81 C68.48 117.74, 46.98 102.82, 5.41 63.89 M82.39 130.81 C59.82 110.86, 38.05 92.08, 5.41 63.89 M107.23 131.2 C66.96 100.76, 24.62 62.34, 5.34 42.63 M107.23 131.2 C88.76 109.23, 65.85 90.27, 5.34 42.63 M135.09 134.21 C108.63 108.55, 78.16 80.03, 5.28 21.37 M135.09 134.21 C106.42 110.43, 78.21 87.33, 5.28 21.37 M153.13 128.7 C102.82 83.34, 58.61 44.69, 11.24 5.36 M153.13 128.7 C115.11 97.03, 79.55 65.49, 11.24 5.36 M166.65 119.24 C111.81 74.09, 60.26 24.49, 24.76 -4.09 M166.65 119.24 C123.67 83.47, 82.65 44.81, 24.76 -4.09 M173.37 103.89 C130.27 62.12, 81.46 24.99, 42.8 -9.61 M173.37 103.89 C124.65 58.58, 75.75 16.05, 42.8 -9.61 M173.3 82.63 C147.95 56.6, 126.36 38.2, 67.64 -9.22 M173.3 82.63 C144.78 56.52, 115.65 30.55, 67.64 -9.22 M173.23 61.37 C150.45 39.42, 130.56 20.26, 91.72 -9.49 M173.23 61.37 C154.77 45.85, 136.45 27.64, 91.72 -9.49 M166.37 34.2 C152.74 21.31, 140.07 16.86, 116.56 -9.1 M166.37 34.2 C150.2 21.71, 136.97 7.66, 116.56 -9.1" stroke="#868e96" stroke-width="2" fill="none"></path><path d="M34.76 0 M34.76 0 C70.38 0.79, 106.34 -2.2, 131.31 0 M34.76 0 C59.07 2.11, 85.87 0.51, 131.31 0 M131.31 0 C152.03 -0.61, 164.65 8.03, 166.07 34.76 M131.31 0 C150.08 2.15, 163.93 8.71, 166.07 34.76 M166.07 34.76 C162.43 61.14, 164.81 83.14, 166.07 104.27 M166.07 34.76 C165.15 53.61, 166.32 74.36, 166.07 104.27 M166.07 104.27 C168.84 127.21, 157.58 135.08, 131.31 139.03 M166.07 104.27 C164.29 130.72, 150.82 140.83, 131.31 139.03 M131.31 139.03 C103.54 139.69, 81.4 143.48, 34.76 139.03 M131.31 139.03 C93.4 140.67, 57.51 138.07, 34.76 139.03 M34.76 139.03 C11.34 142.44, -3.64 129.15, 0 104.27 M34.76 139.03 C10.87 141.74, -3.7 123.33, 0 104.27 M0 104.27 C2.01 84.84, 3.3 59.75, 0 34.76 M0 104.27 C1.06 78.5, -0.46 51.72, 0 34.76 M0 34.76 C-0.69 11.75, 7.61 2.66, 34.76 0 M0 34.76 C-2.29 12.05, 8.29 0.27, 34.76 0" stroke="#0000" stroke-width="4" fill="none"></path></g></svg>