<svg version="1.1" xmlns="http://www.w3.org/2000/svg" viewBox="0 0 241.66928354429382 172.00515121468698" width="241.66928354429382" height="172.00515121468698">
  <!-- svg-source:excalidraw -->
  
  <defs>
    <style>
      @font-face {
        font-family: "Virgil";
        src: url("https://excalidraw.com/Virgil.woff2");
      }
      @font-face {
        font-family: "Cascadia";
        src: url("https://excalidraw.com/Cascadia.woff2");
      }
    </style>
  </defs>
  <g stroke-linecap="round" transform="translate(10 10) rotate(0 110.83464177214691 76.00257560734349)"><path d="M5.15 15.07 C5.15 15.07, 5.15 15.07, 5.15 15.07 M5.15 15.07 C5.15 15.07, 5.15 15.07, 5.15 15.07 M8.04 36.14 C14.4 20.55, 26.65 15.76, 38.87 0.66 M8.04 36.14 C18.56 24.04, 30.44 13.43, 38.87 0.66 M8.3 60.22 C30.29 35.62, 46.97 14.8, 60.13 0.6 M8.3 60.22 C23.89 41.41, 44.72 20.27, 60.13 0.6 M8.57 84.3 C32.88 58.21, 65.91 25.42, 81.39 0.53 M8.57 84.3 C27.36 61.86, 49.92 40.32, 81.39 0.53 M8.18 109.14 C29.96 89.7, 49.47 68.66, 102.65 0.46 M8.18 109.14 C32.57 75.44, 61.49 45.8, 102.65 0.46 M10.41 130.95 C50.37 77.42, 97.58 24.65, 123.91 0.39 M10.41 130.95 C37.06 99.58, 63.2 71.78, 123.91 0.39 M16.58 148.24 C64.48 91.23, 114.65 33.47, 144.52 1.07 M16.58 148.24 C40.71 119.15, 66.93 87.26, 144.52 1.07 M29.97 157.23 C68.89 115.34, 104.25 71.07, 165.78 1.01 M29.97 157.23 C60.61 118.03, 93.56 83.31, 165.78 1.01 M47.95 160.93 C79.75 124.47, 111.72 93.55, 185.72 2.45 M47.95 160.93 C97.02 104.58, 147.13 47.85, 185.72 2.45 M69.21 160.87 C122.81 104.66, 169.92 44.38, 204.36 5.4 M69.21 160.87 C117.14 100.69, 167.35 44.11, 204.36 5.4 M90.47 160.8 C119.26 132.92, 147.49 94.71, 217.75 14.38 M90.47 160.8 C117.81 127.5, 147.77 98.46, 217.75 14.38 M111.73 160.73 C140.36 116.31, 181.46 76.47, 227.2 27.9 M111.73 160.73 C141.08 126.94, 168.47 92.39, 227.2 27.9 M132.99 160.66 C160.33 130.25, 186.5 91.02, 232.06 46.7 M132.99 160.66 C167.24 120.05, 205.12 77.31, 232.06 46.7 M154.25 160.59 C182.17 127.29, 212.47 99.69, 231.67 71.53 M154.25 160.59 C174.07 139.42, 186.62 121.97, 231.67 71.53 M175.51 160.52 C189.9 135.1, 215.49 116.78, 231.28 96.37 M175.51 160.52 C197.49 136.48, 219.21 108.57, 231.28 96.37" stroke="#868e96" stroke-width="2" fill="none"></path><path d="M38 0 M38 0 C79.27 -0.51, 118.6 -1.53, 183.67 0 M38 0 C79.8 2.5, 121.74 1.46, 183.67 0 M183.67 0 C210.39 2.52, 220.78 10.69, 221.67 38 M183.67 0 C211.61 2.38, 218.9 8.09, 221.67 38 M221.67 38 C223.07 69.31, 222.6 93.05, 221.67 114 M221.67 38 C221.44 64.25, 222.92 93.12, 221.67 114 M221.67 114 C225.01 139.95, 210.88 149.42, 183.67 152.01 M221.67 114 C218.77 135.4, 204.87 149.28, 183.67 152.01 M183.67 152.01 C123.48 150.02, 70.15 153.25, 38 152.01 M183.67 152.01 C128.75 151.07, 79.44 153.1, 38 152.01 M38 152.01 C14.41 151.56, 0.33 140.5, 0 114 M38 152.01 C14.51 149.14, -0.89 135.21, 0 114 M0 114 C-2.04 98.9, -1.2 77.92, 0 38 M0 114 C1.77 90.32, 0.07 65.6, 0 38 M0 38 C1.67 13.94, 11.36 0.21, 38 0 M0 38 C-3.82 12.88, 8.67 3.98, 38 0" stroke="#0000" stroke-width="4" fill="none"></path></g></svg>