<svg version="1.1" xmlns="http://www.w3.org/2000/svg" viewBox="0 0 113.20947298612066 124.96166454977953" width="113.20947298612066" height="124.96166454977953">
  <!-- svg-source:excalidraw -->
  
  <defs>
    <style>
      @font-face {
        font-family: "Virgil";
        src: url("https://excalidraw.com/Virgil.woff2");
      }
      @font-face {
        font-family: "Cascadia";
        src: url("https://excalidraw.com/Cascadia.woff2");
      }
    </style>
  </defs>
  <g stroke-linecap="round" transform="translate(10.062273251691863 48.11150382696542) rotate(0 46.5735998672144 33.425080361407055)"><path d="M0 0 C0 0, 0 0, 0 0 M0 0 C0 0, 0 0, 0 0 M-0.26 6.4 C1.31 4.59, 2.89 2.78, 4.99 0.36 M-0.26 6.4 C1.43 4.46, 3.12 2.51, 4.99 0.36 M0.13 12.04 C3.97 7.62, 7.81 3.21, 10.63 -0.03 M0.13 12.04 C4.13 7.44, 8.13 2.84, 10.63 -0.03 M-0.13 18.44 C3.3 14.49, 6.73 10.55, 15.62 0.33 M-0.13 18.44 C3.37 14.41, 6.87 10.39, 15.62 0.33 M0.27 24.08 C6.9 16.45, 13.53 8.83, 21.26 -0.07 M0.27 24.08 C5.8 17.71, 11.34 11.34, 21.26 -0.07 M0 30.48 C8.31 20.93, 16.62 11.37, 26.25 0.29 M0 30.48 C8.77 20.4, 17.53 10.32, 26.25 0.29 M-0.26 36.88 C7.26 28.23, 14.77 19.59, 31.89 -0.1 M-0.26 36.88 C11.37 23.5, 23 10.13, 31.89 -0.1 M0.14 42.52 C11.08 29.93, 22.03 17.34, 36.88 0.26 M0.14 42.52 C13.65 26.98, 27.15 11.44, 36.88 0.26 M-0.12 48.92 C13.3 33.48, 26.72 18.04, 42.52 -0.14 M-0.12 48.92 C15 31.52, 30.12 14.12, 42.52 -0.14 M0.27 54.56 C15.63 36.89, 30.99 19.22, 47.51 0.22 M0.27 54.56 C14.35 38.36, 28.43 22.16, 47.51 0.22 M0.01 60.96 C19.39 38.66, 38.78 16.36, 53.15 -0.17 M0.01 60.96 C12.6 46.47, 25.19 31.99, 53.15 -0.17 M0.4 66.6 C19.03 45.18, 37.65 23.75, 58.14 0.19 M0.4 66.6 C15.65 49.06, 30.89 31.53, 58.14 0.19 M5.39 66.96 C22.97 46.74, 40.54 26.52, 63.78 -0.21 M5.39 66.96 C18.06 52.39, 30.73 37.82, 63.78 -0.21 M11.03 66.57 C26.91 48.3, 42.79 30.04, 68.77 0.15 M11.03 66.57 C26.53 48.74, 42.02 30.92, 68.77 0.15 M16.02 66.93 C30.71 50.04, 45.39 33.14, 74.41 -0.24 M16.02 66.93 C28.69 52.35, 41.36 37.78, 74.41 -0.24 M21.01 67.29 C40.19 45.22, 59.37 23.15, 79.4 0.12 M21.01 67.29 C37.24 48.62, 53.47 29.95, 79.4 0.12 M26.65 66.89 C41.54 49.76, 56.44 32.63, 85.04 -0.28 M26.65 66.89 C48.46 41.8, 70.28 16.71, 85.04 -0.28 M31.64 67.25 C48.57 47.77, 65.5 28.3, 90.03 0.08 M31.64 67.25 C50.55 45.5, 69.45 23.75, 90.03 0.08 M37.28 66.86 C57.93 43.11, 78.57 19.36, 94.36 1.2 M37.28 66.86 C56.53 44.72, 75.77 22.58, 94.36 1.2 M42.27 67.22 C59.45 47.46, 76.62 27.7, 94.75 6.84 M42.27 67.22 C52.82 55.08, 63.37 42.95, 94.75 6.84 M47.91 66.82 C63.38 49.03, 78.85 31.23, 94.49 13.24 M47.91 66.82 C65.26 46.87, 82.6 26.92, 94.49 13.24 M52.9 67.18 C64.02 54.39, 75.15 41.59, 94.23 19.64 M52.9 67.18 C68.13 49.66, 83.37 32.14, 94.23 19.64 M58.54 66.79 C70.74 52.75, 82.94 38.72, 94.62 25.28 M58.54 66.79 C67.84 56.09, 77.15 45.39, 94.62 25.28 M63.53 67.15 C72.94 56.32, 82.36 45.49, 94.36 31.68 M63.53 67.15 C71.23 58.29, 78.93 49.43, 94.36 31.68 M69.17 66.76 C75.89 59.03, 82.6 51.31, 94.76 37.32 M69.17 66.76 C79.05 55.39, 88.93 44.02, 94.76 37.32 M74.16 67.12 C79.98 60.41, 85.81 53.71, 94.5 43.72 M74.16 67.12 C80.9 59.36, 87.65 51.6, 94.5 43.72 M79.8 66.72 C85.56 60.1, 91.31 53.48, 94.24 50.12 M79.8 66.72 C83.62 62.33, 87.43 57.95, 94.24 50.12 M84.79 67.08 C86.99 64.54, 89.2 62.01, 94.63 55.76 M84.79 67.08 C87.4 64.07, 90.02 61.06, 94.63 55.76 M90.43 66.69 C91.81 65.1, 93.2 63.5, 94.37 62.16 M90.43 66.69 C91.27 65.72, 92.11 64.76, 94.37 62.16" stroke="#000000" stroke-width="0.5" fill="none"></path><path d="M0 0 C21.83 0, 43.65 0, 93.15 0 M0 0 C21.43 0, 42.86 0, 93.15 0 M93.15 0 C93.15 20.14, 93.15 40.28, 93.15 66.85 M93.15 0 C93.15 15.53, 93.15 31.07, 93.15 66.85 M93.15 66.85 C70.53 66.85, 47.92 66.85, 0 66.85 M93.15 66.85 C64.37 66.85, 35.59 66.85, 0 66.85 M0 66.85 C0 52.07, 0 37.29, 0 0 M0 66.85 C0 47.73, 0 28.62, 0 0" stroke="#000000" stroke-width="1" fill="none"></path></g><g stroke-linecap="round"><g transform="translate(10 47.94905562212756) rotate(0 22.858621676518055 -18.95423539210276)"><path d="M0 0 C17.76 -14.73, 35.53 -29.46, 45.72 -37.91 M0 0 C17.5 -14.51, 35 -29.02, 45.72 -37.91" stroke="#000000" stroke-width="1" fill="none"></path></g></g><g stroke-linecap="round"><g transform="translate(103.08870909017617 48.273406524880784) rotate(0 -23.677615900985586 -19.136703262440392)"><path d="M0 0 C-17.9 -14.47, -35.81 -28.94, -47.36 -38.27 M0 0 C-14.36 -11.61, -28.73 -23.22, -47.36 -38.27" stroke="#000000" stroke-width="1" fill="none"></path></g></g></svg>