<svg version="1.1" xmlns="http://www.w3.org/2000/svg" viewBox="0 0 245 241" width="245" height="241">
  <!-- svg-source:excalidraw -->
  
  <defs>
    <style>
      @font-face {
        font-family: "Virgil";
        src: url("https://excalidraw.com/Virgil.woff2");
      }
      @font-face {
        font-family: "Cascadia";
        src: url("https://excalidraw.com/Cascadia.woff2");
      }
    </style>
  </defs>
  <g stroke-linecap="round" transform="translate(10 10) rotate(0 112.5 110.5)"><path d="M225 110.5 C225 113.9, 224.84 117.31, 224.52 120.7 C224.2 124.08, 223.72 127.46, 223.08 130.8 C222.45 134.15, 221.65 137.47, 220.71 140.74 C219.76 144.01, 218.65 147.25, 217.4 150.42 C216.15 153.59, 214.75 156.71, 213.21 159.75 C211.66 162.8, 209.97 165.78, 208.15 168.67 C206.33 171.56, 204.36 174.38, 202.28 177.09 C200.19 179.8, 197.97 182.43, 195.64 184.94 C193.31 187.45, 190.85 189.87, 188.29 192.16 C185.73 194.45, 183.06 196.63, 180.3 198.68 C177.54 200.73, 174.67 202.66, 171.72 204.45 C168.78 206.24, 165.74 207.9, 162.65 209.42 C159.55 210.93, 156.37 212.31, 153.14 213.54 C149.91 214.77, 146.62 215.85, 143.29 216.78 C139.96 217.71, 136.57 218.49, 133.17 219.12 C129.77 219.74, 126.33 220.22, 122.88 220.53 C119.43 220.84, 115.96 221, 112.5 221 C109.04 221, 105.57 220.84, 102.12 220.53 C98.67 220.22, 95.23 219.74, 91.83 219.12 C88.43 218.49, 85.04 217.71, 81.71 216.78 C78.38 215.85, 75.09 214.77, 71.86 213.54 C68.63 212.31, 65.45 210.93, 62.35 209.42 C59.26 207.9, 56.22 206.24, 53.28 204.45 C50.33 202.66, 47.46 200.73, 44.7 198.68 C41.94 196.63, 39.27 194.45, 36.71 192.16 C34.15 189.87, 31.69 187.45, 29.36 184.94 C27.03 182.43, 24.81 179.8, 22.72 177.09 C20.64 174.38, 18.67 171.56, 16.85 168.67 C15.03 165.78, 13.34 162.8, 11.79 159.75 C10.25 156.71, 8.85 153.59, 7.6 150.42 C6.35 147.25, 5.24 144.01, 4.29 140.74 C3.35 137.47, 2.55 134.15, 1.92 130.8 C1.28 127.46, 0.8 124.08, 0.48 120.7 C0.16 117.31, 0 113.9, 0 110.5 C0 107.1, 0.16 103.69, 0.48 100.3 C0.8 96.92, 1.28 93.54, 1.92 90.2 C2.55 86.85, 3.35 83.53, 4.29 80.26 C5.24 76.99, 6.35 73.75, 7.6 70.58 C8.85 67.41, 10.25 64.29, 11.79 61.25 C13.34 58.2, 15.03 55.22, 16.85 52.33 C18.67 49.44, 20.64 46.62, 22.72 43.91 C24.81 41.2, 27.03 38.57, 29.36 36.06 C31.69 33.55, 34.15 31.13, 36.71 28.84 C39.27 26.55, 41.94 24.37, 44.7 22.32 C47.46 20.27, 50.33 18.34, 53.28 16.55 C56.22 14.76, 59.26 13.1, 62.35 11.58 C65.45 10.07, 68.63 8.69, 71.86 7.46 C75.09 6.23, 78.38 5.15, 81.71 4.22 C85.04 3.29, 88.43 2.51, 91.83 1.88 C95.23 1.26, 98.67 0.78, 102.12 0.47 C105.57 0.16, 109.04 0, 112.5 0 C115.96 0, 119.43 0.16, 122.88 0.47 C126.33 0.78, 129.77 1.26, 133.17 1.88 C136.57 2.51, 139.96 3.29, 143.29 4.22 C146.62 5.15, 149.91 6.23, 153.14 7.46 C156.37 8.69, 159.55 10.07, 162.65 11.58 C165.74 13.1, 168.78 14.76, 171.72 16.55 C174.67 18.34, 177.54 20.27, 180.3 22.32 C183.06 24.37, 185.73 26.55, 188.29 28.84 C190.85 31.13, 193.31 33.55, 195.64 36.06 C197.97 38.57, 200.19 41.2, 202.28 43.91 C204.36 46.62, 206.33 49.44, 208.15 52.33 C209.97 55.22, 211.66 58.2, 213.21 61.25 C214.75 64.29, 216.15 67.41, 217.4 70.58 C218.65 73.75, 219.76 76.99, 220.71 80.26 C221.65 83.53, 222.45 86.85, 223.08 90.2 C223.72 93.54, 224.2 96.92, 224.52 100.3 C224.84 103.69, 224.92 108.8, 225 110.5 C225.08 112.2, 225.08 108.8, 225 110.5" stroke="#000000" stroke-width="4" fill="none"></path></g></svg>