<svg version="1.1" xmlns="http://www.w3.org/2000/svg" viewBox="0 0 113.1471997344288 86.85016072281411" width="113.1471997344288" height="86.85016072281411">
  <!-- svg-source:excalidraw -->
  
  <defs>
    <style>
      @font-face {
        font-family: "Virgil";
        src: url("https://excalidraw.com/Virgil.woff2");
      }
      @font-face {
        font-family: "Cascadia";
        src: url("https://excalidraw.com/Cascadia.woff2");
      }
    </style>
  </defs>
  <g stroke-linecap="round" transform="translate(10 10) rotate(0 46.5735998672144 33.425080361407055)"><path d="M0 0 C20.42 0, 40.84 0, 93.15 0 M0 0 C30.6 0, 61.19 0, 93.15 0 M93.15 0 C93.15 19.07, 93.15 38.14, 93.15 66.85 M93.15 0 C93.15 24.95, 93.15 49.89, 93.15 66.85 M93.15 66.85 C69.71 66.85, 46.28 66.85, 0 66.85 M93.15 66.85 C65.42 66.85, 37.7 66.85, 0 66.85 M0 66.85 C0 41.1, 0 15.36, 0 0 M0 66.85 C0 43.2, 0 19.54, 0 0" stroke="#000000" stroke-width="1" fill="none"></path></g><g stroke-linecap="round"><g transform="translate(10.0023177053489 10.173878942856334) rotate(0 46.5453211277553 16.597081612660133)"><path d="M0 0 C13.03 9.57, 26.06 19.14, 45.2 33.19 M0 0 C10.1 7.42, 20.2 14.83, 45.2 33.19 M45.2 33.19 C57.94 24.36, 70.68 15.53, 93.09 0 M45.2 33.19 C59.83 23.05, 74.47 12.91, 93.09 0" stroke="#000000" stroke-width="1" fill="none"></path></g></g></svg>