<svg version="1.1" xmlns="http://www.w3.org/2000/svg" viewBox="0 0 113.1471997344288 99.94305895075081" width="113.1471997344288" height="99.94305895075081">
  <!-- svg-source:excalidraw -->
  
  <defs>
    <style>
      @font-face {
        font-family: "Virgil";
        src: url("https://excalidraw.com/Virgil.woff2");
      }
      @font-face {
        font-family: "Cascadia";
        src: url("https://excalidraw.com/Cascadia.woff2");
      }
    </style>
  </defs>
  <g stroke-linecap="round" transform="translate(10 23.0928982279367) rotate(0 46.5735998672144 33.425080361407055)"><path d="M0 0 C20.42 0, 40.84 0, 93.15 0 M0 0 C30.6 0, 61.19 0, 93.15 0 M93.15 0 C93.15 19.07, 93.15 38.14, 93.15 66.85 M93.15 0 C93.15 24.95, 93.15 49.89, 93.15 66.85 M93.15 66.85 C69.71 66.85, 46.28 66.85, 0 66.85 M93.15 66.85 C65.42 66.85, 37.7 66.85, 0 66.85 M0 66.85 C0 41.1, 0 15.36, 0 0 M0 66.85 C0 43.2, 0 19.54, 0 0" stroke="#000000" stroke-width="1" fill="none"></path></g><g stroke-linecap="round"><g transform="translate(13.800907282463868 22.47873314175837) rotate(0 6.102096140579249 -3.5256555478901532)"><path d="M0 0 C-0.09 -2.43, -0.17 -4.85, -0.27 -7.59 M0 0 C-0.09 -2.56, -0.18 -5.11, -0.27 -7.59 M-0.27 -7.59 C2.4 -7.59, 5.07 -7.59, 12.34 -7.59 M-0.27 -7.59 C4.72 -7.59, 9.71 -7.59, 12.34 -7.59 M12.34 -7.59 C12.37 -5.61, 12.41 -3.63, 12.48 0.54 M12.34 -7.59 C12.38 -4.92, 12.43 -2.24, 12.48 0.54" stroke="#000000" stroke-width="1" fill="none"></path></g></g><g stroke-linecap="round"><g transform="translate(18.9103352008691 14.293511886769181) rotate(0 7.7919289796923294 2.186510683076932)"><path d="M0 0 C-0.02 -1.13, -0.05 -2.27, -0.08 -3.98 M0 0 C-0.03 -1.55, -0.06 -3.1, -0.08 -3.98 M-0.08 -3.98 C3.44 -4.05, 6.95 -4.12, 15.42 -4.29 M-0.08 -3.98 C5.68 -4.09, 11.44 -4.21, 15.42 -4.29 M15.42 -4.29 C15.51 0.52, 15.6 5.34, 15.66 8.67 M15.42 -4.29 C15.48 -1.36, 15.53 1.56, 15.66 8.67" stroke="#000000" stroke-width="1" fill="none"></path></g></g><g transform="translate(33.73471976580652 25.723265663538484) rotate(0 24.614967595209635 28.845665150636307)"><text x="0" y="13.230443433757529" font-family="Virgil, Segoe UI Emoji" font-size="15.384354747006029px" fill="#000000" text-anchor="start" style="white-space: pre;" direction="ltr">Secret</text><text x="0" y="32.46088686751506" font-family="Virgil, Segoe UI Emoji" font-size="15.384354747006029px" fill="#000000" text-anchor="start" style="white-space: pre;" direction="ltr">Sauce</text><text x="0" y="51.691330301272586" font-family="Virgil, Segoe UI Emoji" font-size="15.384354747006029px" fill="#000000" text-anchor="start" style="white-space: pre;" direction="ltr">Code</text></g></svg>