<svg version="1.1" xmlns="http://www.w3.org/2000/svg" viewBox="0 0 99.78936335238507 160.7535474688995" width="99.78936335238507" height="160.7535474688995">
  <!-- svg-source:excalidraw -->
  
  <defs>
    <style>
      @font-face {
        font-family: "Virgil";
        src: url("https://excalidraw.com/Virgil.woff2");
      }
      @font-face {
        font-family: "Cascadia";
        src: url("https://excalidraw.com/Cascadia.woff2");
      }
    </style>
  </defs>
  <g stroke-linecap="round"><g transform="translate(29.53825642249535 150.7535474688995) rotate(0 20.003436607161234 0)"><path d="M0 0 C6.67 0, 33.34 0, 40.01 0 M0 0 C6.67 0, 33.34 0, 40.01 0" stroke="#000000" stroke-width="4" fill="none"></path></g></g><g stroke-linecap="round"><g transform="translate(69.57512230474231 150.41530564327462) rotate(0 0.7981390674110571 -38.31067523573142)"><path d="M0 0 C0.27 -12.77, 1.33 -63.85, 1.6 -76.62 M0 0 C0.27 -12.77, 1.33 -63.85, 1.6 -76.62" stroke="#000000" stroke-width="4" fill="none"></path></g></g><g stroke-linecap="round"><g transform="translate(29.516260448418507 150.70110436899944) rotate(0 0.7981390674110571 -38.31067523573142)"><path d="M0 0 C0.27 -12.77, 1.33 -63.85, 1.6 -76.62 M0 0 C0.27 -12.77, 1.33 -63.85, 1.6 -76.62" stroke="#000000" stroke-width="4" fill="none"></path></g></g><g stroke-linecap="round"><g transform="translate(89.12630904240996 52.38618995822236) rotate(359.7247552071192 0.37547232806127795 -18.29468588557137)"><path d="M0 0 C0.13 -6.1, 0.63 -30.49, 0.75 -36.59 M0 0 C0.13 -6.1, 0.63 -30.49, 0.75 -36.59" stroke="#000000" stroke-width="4" fill="none"></path></g></g><g stroke-linecap="round"><g transform="translate(89.6779310533318 15.773961967412504) rotate(0 -8.13719551855138 -0.14764508409857058)"><path d="M0 0 C-2.71 -0.05, -13.56 -0.25, -16.27 -0.3 M0 0 C-2.71 -0.05, -13.56 -0.25, -16.27 -0.3" stroke="#000000" stroke-width="4" fill="none"></path></g></g><g stroke-linecap="round"><g transform="translate(73.14610351003137 39.75844221964638) rotate(0.4172084499614446 0.10084843730788862 -12.06219590433605)"><path d="M0 0 C0.03 -4.02, 0.17 -20.1, 0.2 -24.12 M0 0 C0.03 -4.02, 0.17 -20.1, 0.2 -24.12" stroke="#000000" stroke-width="4" fill="none"></path></g></g><g stroke-linecap="round"><g transform="translate(72.9511003251871 39.98241032773166) rotate(0 -2.988415897458083 4.108811356695497)"><path d="M0 0 C-1 1.37, -4.98 6.85, -5.98 8.22 M0 0 C-1 1.37, -4.98 6.85, -5.98 8.22" stroke="#000000" stroke-width="4" fill="none"></path></g></g><g stroke-linecap="round"><g transform="translate(30.942016866900303 73.84384597636364) rotate(0 -10.443504660091264 -10.314039726288485)"><path d="M0 0 C-3.48 -3.44, -17.41 -17.19, -20.89 -20.63 M0 0 C-3.48 -3.44, -17.41 -17.19, -20.89 -20.63" stroke="#000000" stroke-width="4" fill="none"></path></g></g><g stroke-linecap="round"><g transform="translate(9.839631378338595 53.11183054944922) rotate(359.5733524713298 0.6041696910796759 -21.534333989196483)"><path d="M0 0 C0.2 -7.18, 1.01 -35.89, 1.21 -43.07 M0 0 C0.2 -7.18, 1.01 -35.89, 1.21 -43.07" stroke="#000000" stroke-width="4" fill="none"></path></g></g><g stroke-linecap="round"><g transform="translate(30.80602565384811 10.25892986760556) rotate(0 -9.882489946945896 -0.12946493380277957)"><path d="M0 0 C-3.29 -0.04, -16.47 -0.22, -19.76 -0.26 M0 0 C-3.29 -0.04, -16.47 -0.22, -19.76 -0.26" stroke="#000000" stroke-width="4" fill="none"></path></g></g><g stroke-linecap="round"><g transform="translate(30.42425094621308 40.2936400895008) rotate(0 0.20151489888138485 -14.998936977363002)"><path d="M0 0 C0.07 -5, 0.34 -25, 0.4 -30 M0 0 C0.07 -5, 0.34 -25, 0.4 -30" stroke="#000000" stroke-width="4" fill="none"></path></g></g><g stroke-linecap="round"><g transform="translate(30.5648535240382 40.3555235072601) rotate(0 2.764753609305558 3.686338145740706)"><path d="M0 0 C0.92 1.23, 4.61 6.14, 5.53 7.37 M0 0 C0.92 1.23, 4.61 6.14, 5.53 7.37" stroke="#000000" stroke-width="4" fill="none"></path></g></g><g stroke-linecap="round"><g transform="translate(66.74964547660909 48.33026147289297) rotate(0 -15.1025304807942 -0.04783309698825633)"><path d="M0 0 C-5.03 -0.02, -25.17 -0.08, -30.21 -0.1 M0 0 C-5.03 -0.02, -25.17 -0.08, -30.21 -0.1" stroke="#000000" stroke-width="4" fill="none"></path></g></g><g stroke-linecap="round"><g transform="translate(71.14856569160281 73.81422048626155) rotate(0 9.021164225717428 -10.685085056994694)"><path d="M0 0 C3.01 -3.56, 15.04 -17.81, 18.04 -21.37 M0 0 C3.01 -3.56, 15.04 -17.81, 18.04 -21.37" stroke="#000000" stroke-width="4" fill="none"></path></g></g></svg>