<svg version="1.1" xmlns="http://www.w3.org/2000/svg" viewBox="0 0 113.17308949792618 132.7727152604155" width="113.17308949792618" height="132.7727152604155">
  <!-- svg-source:excalidraw -->
  
  <defs>
    <style>
      @font-face {
        font-family: "Virgil";
        src: url("https://excalidraw.com/Virgil.woff2");
      }
      @font-face {
        font-family: "Cascadia";
        src: url("https://excalidraw.com/Cascadia.woff2");
      }
    </style>
  </defs>
  <g stroke-linecap="round" transform="translate(10.02588976349739 55.9225545376014) rotate(0 46.5735998672144 33.425080361407055)"><path d="M0 0 C20.42 0, 40.84 0, 93.15 0 M0 0 C30.6 0, 61.19 0, 93.15 0 M93.15 0 C93.15 19.07, 93.15 38.14, 93.15 66.85 M93.15 0 C93.15 24.95, 93.15 49.89, 93.15 66.85 M93.15 66.85 C69.71 66.85, 46.28 66.85, 0 66.85 M93.15 66.85 C65.42 66.85, 37.7 66.85, 0 66.85 M0 66.85 C0 41.1, 0 15.36, 0 0 M0 66.85 C0 43.2, 0 19.54, 0 0" stroke="#000000" stroke-width="1" fill="none"></path></g><g stroke-linecap="round" transform="translate(10 10) rotate(0 46.585119843402424 45.97355901891069)"><path d="M47 0 C61.01 13.96, 75.03 27.92, 93.17 46 M47 0 C58.64 11.59, 70.27 23.19, 93.17 46 M93.17 46 C81.51 57.6, 69.86 69.2, 47 91.95 M93.17 46 C77.27 61.82, 61.37 77.64, 47 91.95 M47 91.95 C28.42 73.78, 9.84 55.62, 0 46 M47 91.95 C32.95 78.22, 18.91 64.49, 0 46 M0 46 C17.12 29.25, 34.23 12.49, 47 0 M0 46 C18.45 27.94, 36.91 9.88, 47 0" stroke="#000000" stroke-width="1" fill="none"></path></g></svg>