<svg version="1.1" xmlns="http://www.w3.org/2000/svg" viewBox="0 0 759 141" width="759" height="141">
  <!-- svg-source:excalidraw -->
  
  <defs>
    <style>
      @font-face {
        font-family: "Virgil";
        src: url("https://excalidraw.com/Virgil.woff2");
      }
      @font-face {
        font-family: "Cascadia";
        src: url("https://excalidraw.com/Cascadia.woff2");
      }
    </style>
  </defs>
  <g transform="translate(73 44) rotate(0 -29 27.5)" stroke="none"><path fill="#ffffff" d="M 0.90,1.65 Q 0.90,1.65 -2.29,3.31 -5.49,4.96 -10.06,7.10 -14.63,9.24 -21.73,12.71 -28.83,16.18 -35.93,19.10 -43.02,22.03 -47.36,24.64 -51.71,27.25 -54.41,29.21 -57.11,31.16 -58.58,32.11 -60.05,33.06 -57.92,33.84 -55.79,34.61 -53.12,35.73 -50.46,36.84 -47.87,37.92 -45.27,39.00 -42.48,40.04 -39.68,41.08 -36.83,41.80 -33.98,42.53 -29.84,43.72 -25.70,44.91 -22.26,45.70 -18.83,46.49 -15.59,47.41 -12.36,48.34 -10.12,49.02 -7.89,49.71 -6.30,50.21 -4.70,50.72 -2.95,51.20 -1.20,51.69 0.05,51.80 1.31,51.91 3.10,52.42 4.89,52.93 5.16,53.08 5.44,53.22 5.65,53.45 5.87,53.67 6.00,53.95 6.13,54.24 6.16,54.55 6.20,54.86 6.13,55.16 6.06,55.46 5.90,55.73 5.74,56.00 5.51,56.20 5.27,56.40 4.98,56.52 4.69,56.63 4.38,56.65 4.07,56.67 3.77,56.58 3.47,56.50 3.21,56.33 2.96,56.15 2.77,55.91 2.58,55.66 2.48,55.36 2.38,55.07 2.38,54.76 2.38,54.45 2.48,54.15 2.58,53.86 2.76,53.61 2.95,53.36 3.21,53.18 3.47,53.01 3.77,52.93 4.07,52.84 4.38,52.86 4.69,52.87 4.98,52.99 5.27,53.10 5.50,53.31 5.74,53.51 5.90,53.77 6.06,54.04 6.13,54.34 6.20,54.65 6.16,54.96 6.13,55.27 6.00,55.55 5.87,55.83 5.66,56.06 5.44,56.28 5.17,56.43 4.89,56.58 4.59,56.63 4.28,56.68 3.97,56.63 3.66,56.58 3.66,56.58 3.66,56.58 2.19,55.99 0.72,55.41 -0.68,55.07 -2.10,54.73 -3.94,54.15 -5.78,53.58 -7.23,52.94 -8.67,52.29 -10.89,51.63 -13.10,50.97 -16.27,50.08 -19.44,49.19 -22.95,48.41 -26.47,47.63 -30.57,46.48 -34.67,45.34 -37.68,44.62 -40.69,43.91 -43.56,42.91 -46.43,41.92 -49.06,40.93 -51.68,39.94 -54.53,38.89 -57.38,37.83 -60.31,36.23 -63.24,34.62 -63.38,33.45 -63.53,32.28 -62.58,31.35 -61.64,30.41 -60.20,29.66 -58.76,28.90 -55.98,26.86 -53.19,24.81 -48.67,22.06 -44.16,19.30 -37.18,16.37 -30.19,13.43 -23.11,9.88 -16.04,6.33 -11.59,4.13 -7.15,1.93 -4.02,0.13 -0.90,-1.65 -0.69,-1.73 -0.48,-1.82 -0.25,-1.85 -0.03,-1.88 0.19,-1.86 0.42,-1.83 0.63,-1.76 0.84,-1.68 1.03,-1.55 1.22,-1.43 1.38,-1.26 1.53,-1.09 1.64,-0.89 1.75,-0.69 1.80,-0.47 1.86,-0.25 1.87,-0.02 1.87,0.19 1.82,0.41 1.77,0.64 1.67,0.84 1.56,1.04 1.42,1.21 1.27,1.39 1.08,1.52 0.90,1.65 0.90,1.65 L 0.90,1.65 Z"></path></g><g transform="translate(160 35) rotate(0 -21.5 36.5)" stroke="none"><path fill="#ffffff" d="M 0.35,1.77 Q 0.35,1.77 -1.06,2.12 -2.49,2.47 -3.88,2.90 -5.28,3.33 -6.73,3.81 -8.18,4.29 -9.66,4.79 -11.14,5.28 -12.98,5.75 -14.81,6.22 -17.29,6.91 -19.77,7.59 -22.49,8.69 -25.21,9.79 -27.48,11.06 -29.74,12.34 -32.13,14.00 -34.52,15.67 -35.72,16.92 -36.92,18.17 -37.59,19.42 -38.25,20.67 -38.25,22.34 -38.26,24.00 -37.51,26.33 -36.77,28.66 -32.83,33.57 -28.89,38.48 -24.43,41.69 -19.98,44.91 -13.51,48.30 -7.04,51.68 -2.54,54.01 1.95,56.34 4.19,57.64 6.42,58.94 7.68,60.47 8.95,62.00 6.37,63.98 3.79,65.96 -1.23,67.54 -6.26,69.13 -12.73,70.65 -19.19,72.17 -26.04,72.81 -32.89,73.46 -36.92,73.72 -40.96,73.98 -43.26,74.09 -45.56,74.20 -47.00,74.06 -48.45,73.93 -50.24,73.34 -52.03,72.76 -52.28,72.65 -52.53,72.54 -52.74,72.35 -52.94,72.16 -53.08,71.92 -53.21,71.68 -53.26,71.40 -53.31,71.13 -53.27,70.85 -53.23,70.58 -53.11,70.33 -52.98,70.08 -52.78,69.89 -52.58,69.69 -52.33,69.57 -52.08,69.45 -51.81,69.42 -51.53,69.38 -51.26,69.44 -50.99,69.49 -50.75,69.63 -50.50,69.77 -50.32,69.98 -50.14,70.19 -50.03,70.44 -49.92,70.70 -49.90,70.98 -49.88,71.26 -49.95,71.52 -50.02,71.79 -50.18,72.03 -50.33,72.26 -50.55,72.43 -50.76,72.60 -51.03,72.70 -51.29,72.79 -51.57,72.79 -51.84,72.80 -52.11,72.71 -52.37,72.63 -52.60,72.47 -52.82,72.30 -52.98,72.07 -53.14,71.85 -53.22,71.58 -53.30,71.31 -53.29,71.04 -53.28,70.76 -53.18,70.50 -53.08,70.24 -52.91,70.02 -52.73,69.81 -52.49,69.66 -52.26,69.51 -51.99,69.45 -51.72,69.38 -51.44,69.41 -51.16,69.44 -51.16,69.44 -51.16,69.44 -49.49,70.10 -47.82,70.76 -46.75,71.11 -45.68,71.45 -43.42,71.32 -41.15,71.19 -37.16,70.90 -33.16,70.60 -26.52,69.95 -19.88,69.29 -13.54,67.74 -7.20,66.19 -2.41,64.61 2.37,63.04 3.71,62.16 5.05,61.29 2.87,60.04 0.69,58.79 -3.82,56.48 -8.34,54.17 -15.00,50.71 -21.65,47.24 -26.42,43.80 -31.19,40.35 -35.44,35.01 -39.68,29.67 -40.60,26.81 -41.52,23.95 -41.37,21.54 -41.23,19.12 -40.20,17.53 -39.17,15.94 -37.73,14.57 -36.29,13.20 -33.82,11.40 -31.36,9.59 -28.96,8.13 -26.56,6.67 -23.72,5.37 -20.88,4.08 -18.39,3.19 -15.90,2.31 -14.16,1.79 -12.43,1.28 -10.92,0.81 -9.41,0.34 -7.88,-0.10 -6.36,-0.54 -4.80,-0.93 -3.25,-1.32 -1.80,-1.55 -0.35,-1.77 -0.13,-1.79 0.08,-1.81 0.29,-1.77 0.51,-1.74 0.71,-1.65 0.91,-1.56 1.08,-1.43 1.26,-1.30 1.39,-1.13 1.53,-0.96 1.63,-0.76 1.72,-0.56 1.76,-0.35 1.80,-0.13 1.79,0.07 1.78,0.29 1.72,0.50 1.66,0.71 1.55,0.90 1.44,1.09 1.29,1.25 1.14,1.41 0.95,1.52 0.77,1.64 0.56,1.71 0.35,1.77 0.35,1.77 L 0.35,1.77 Z"></path></g><g transform="translate(214 51) rotate(0 -5.5 20)" stroke="none"><path fill="#ffffff" d="M 1.75,0.63 Q 1.75,0.63 0.53,3.77 -0.68,6.91 -1.80,9.68 -2.92,12.46 -4.26,16.46 -5.60,20.47 -6.45,24.41 -7.31,28.35 -7.98,31.21 -8.65,34.08 -8.92,36.60 -9.19,39.12 -9.27,39.37 -9.35,39.63 -9.51,39.84 -9.67,40.06 -9.89,40.21 -10.11,40.36 -10.37,40.44 -10.63,40.51 -10.89,40.50 -11.16,40.49 -11.41,40.39 -11.66,40.29 -11.87,40.12 -12.07,39.95 -12.21,39.72 -12.35,39.50 -12.41,39.24 -12.47,38.98 -12.44,38.71 -12.42,38.44 -12.31,38.20 -12.20,37.96 -12.02,37.76 -11.84,37.56 -11.60,37.44 -11.37,37.31 -11.10,37.26 -10.84,37.22 -10.57,37.26 -10.31,37.30 -10.07,37.42 -9.84,37.54 -9.65,37.74 -9.46,37.93 -9.35,38.17 -9.23,38.41 -9.20,38.68 -9.17,38.94 -9.23,39.20 -9.28,39.47 -9.42,39.70 -9.55,39.93 -9.75,40.10 -9.96,40.28 -10.20,40.38 -10.45,40.48 -10.72,40.50 -10.98,40.51 -11.24,40.45 -11.50,40.38 -11.72,40.23 -11.95,40.08 -12.11,39.87 -12.27,39.66 -12.36,39.41 -12.45,39.15 -12.45,38.89 -12.46,38.62 -12.46,38.62 -12.46,38.62 -11.94,36.04 -11.43,33.45 -10.81,30.60 -10.18,27.74 -9.34,23.64 -8.50,19.53 -7.21,15.42 -5.92,11.31 -4.92,8.52 -3.91,5.73 -2.83,2.55 -1.75,-0.63 -1.64,-0.83 -1.54,-1.03 -1.40,-1.20 -1.25,-1.37 -1.07,-1.50 -0.88,-1.63 -0.67,-1.72 -0.47,-1.80 -0.24,-1.83 -0.02,-1.86 0.19,-1.83 0.42,-1.81 0.63,-1.73 0.84,-1.66 1.03,-1.53 1.21,-1.41 1.36,-1.24 1.51,-1.07 1.62,-0.88 1.73,-0.68 1.79,-0.46 1.84,-0.24 1.84,-0.02 1.85,0.19 1.80,0.41 1.75,0.63 1.75,0.63 L 1.75,0.63 Z"></path></g><g transform="translate(198 19) rotate(0 24 0.5)" stroke="none"><path fill="#ffffff" d="M 0.21,-1.73 Q 0.21,-1.73 2.50,-1.38 4.80,-1.04 7.72,-0.88 10.64,-0.72 15.34,-0.64 20.03,-0.55 23.19,-0.51 26.34,-0.46 29.34,-0.72 32.34,-0.98 35.40,-1.09 38.46,-1.20 42.36,-1.39 46.25,-1.59 46.51,-1.55 46.77,-1.51 47.01,-1.39 47.24,-1.27 47.43,-1.09 47.61,-0.90 47.72,-0.66 47.84,-0.43 47.87,-0.17 47.91,0.08 47.85,0.34 47.80,0.60 47.67,0.83 47.54,1.05 47.34,1.23 47.15,1.40 46.90,1.50 46.66,1.61 46.40,1.62 46.14,1.64 45.88,1.58 45.63,1.51 45.41,1.37 45.19,1.23 45.03,1.02 44.86,0.81 44.77,0.57 44.69,0.32 44.68,0.06 44.68,-0.20 44.76,-0.45 44.84,-0.70 44.99,-0.91 45.15,-1.12 45.36,-1.27 45.57,-1.42 45.83,-1.50 46.08,-1.57 46.34,-1.56 46.60,-1.56 46.85,-1.46 47.09,-1.37 47.30,-1.20 47.50,-1.04 47.64,-0.81 47.78,-0.59 47.84,-0.34 47.90,-0.08 47.88,0.17 47.86,0.43 47.75,0.67 47.64,0.91 47.47,1.11 47.29,1.30 47.06,1.43 46.83,1.56 46.57,1.60 46.31,1.65 46.31,1.65 46.31,1.65 42.44,1.60 38.57,1.55 35.58,1.67 32.59,1.80 29.45,2.10 26.32,2.40 23.16,2.40 20.00,2.40 15.26,2.38 10.51,2.36 7.45,2.27 4.39,2.19 2.09,1.96 -0.21,1.73 -0.42,1.68 -0.62,1.63 -0.81,1.53 -0.99,1.43 -1.15,1.29 -1.31,1.15 -1.43,0.98 -1.55,0.80 -1.62,0.60 -1.69,0.41 -1.72,0.20 -1.74,-0.00 -1.72,-0.21 -1.69,-0.42 -1.61,-0.62 -1.54,-0.81 -1.42,-0.99 -1.30,-1.16 -1.14,-1.30 -0.98,-1.44 -0.80,-1.53 -0.61,-1.63 -0.40,-1.68 -0.20,-1.73 0.00,-1.73 0.21,-1.73 0.21,-1.73 L 0.21,-1.73 Z"></path></g><g transform="translate(326 17) rotate(0 -35 53.5)" stroke="none"><path fill="#ffffff" d="M -1.20,1.00 Q -1.20,1.00 -2.60,-0.73 -4.00,-2.46 -5.55,-3.32 -7.11,-4.18 -9.32,-4.56 -11.54,-4.93 -14.05,-4.28 -16.56,-3.63 -20.24,-2.23 -23.93,-0.83 -30.00,3.14 -36.08,7.13 -43.25,13.11 -50.43,19.10 -55.12,25.56 -59.81,32.02 -62.62,40.68 -65.44,49.34 -66.65,57.87 -67.86,66.40 -67.80,73.43 -67.75,80.45 -67.15,86.59 -66.56,92.72 -66.02,97.06 -65.49,101.39 -64.97,104.98 -64.46,108.57 -66.81,110.05 -69.16,111.53 -69.35,111.40 -69.54,111.26 -69.69,111.07 -69.83,110.89 -69.90,110.66 -69.98,110.44 -69.98,110.20 -69.98,109.97 -69.90,109.74 -69.82,109.52 -69.68,109.33 -69.54,109.15 -69.34,109.02 -69.15,108.88 -68.92,108.82 -68.69,108.76 -68.46,108.77 -68.22,108.79 -68.00,108.87 -67.78,108.96 -67.60,109.12 -67.43,109.27 -67.30,109.47 -67.18,109.67 -67.13,109.90 -67.08,110.13 -67.11,110.37 -67.14,110.60 -67.24,110.82 -67.34,111.03 -67.50,111.20 -67.66,111.37 -67.87,111.48 -68.08,111.59 -68.31,111.63 -68.54,111.66 -68.78,111.63 -69.01,111.59 -69.22,111.48 -69.42,111.36 -69.59,111.19 -69.75,111.02 -69.85,110.81 -69.94,110.59 -69.97,110.36 -69.99,110.12 -69.94,109.89 -69.89,109.66 -69.77,109.46 -69.65,109.26 -69.47,109.11 -69.29,108.96 -69.07,108.87 -68.85,108.78 -68.61,108.77 -68.38,108.76 -68.15,108.82 -67.92,108.89 -67.92,108.89 -67.92,108.89 -67.49,108.87 -67.06,108.85 -67.58,105.28 -68.10,101.72 -68.65,97.34 -69.19,92.97 -69.79,86.72 -70.39,80.47 -70.44,73.25 -70.49,66.03 -69.23,57.27 -67.97,48.52 -64.98,39.50 -61.99,30.48 -57.08,23.76 -52.17,17.04 -44.87,10.95 -37.58,4.85 -31.25,0.72 -24.92,-3.41 -21.08,-4.89 -17.23,-6.37 -14.18,-7.07 -11.14,-7.77 -8.41,-7.28 -5.67,-6.79 -3.71,-5.61 -1.74,-4.43 -0.26,-2.71 1.20,-1.00 1.30,-0.84 1.41,-0.68 1.47,-0.50 1.53,-0.32 1.55,-0.14 1.57,0.04 1.54,0.23 1.51,0.42 1.44,0.59 1.36,0.77 1.25,0.92 1.14,1.07 0.99,1.19 0.85,1.31 0.68,1.40 0.51,1.48 0.32,1.52 0.14,1.56 -0.04,1.55 -0.23,1.55 -0.41,1.50 -0.60,1.45 -0.76,1.35 -0.93,1.26 -1.06,1.13 -1.20,1.00 -1.20,1.00 L -1.20,1.00 Z"></path></g><g transform="translate(239 95) rotate(0 37 -4)" stroke="none"><path fill="#ffffff" d="M -1.08,-1.44 Q -1.08,-1.44 0.06,-2.37 1.21,-3.30 4.95,-4.03 8.69,-4.77 16.00,-5.00 23.32,-5.23 31.80,-5.87 40.28,-6.52 48.22,-7.07 56.16,-7.62 60.95,-8.13 65.73,-8.64 69.05,-9.08 72.37,-9.52 72.64,-9.51 72.91,-9.49 73.16,-9.39 73.41,-9.28 73.62,-9.10 73.82,-8.93 73.96,-8.69 74.10,-8.46 74.15,-8.19 74.21,-7.92 74.18,-7.65 74.14,-7.38 74.03,-7.14 73.91,-6.89 73.72,-6.70 73.53,-6.50 73.29,-6.38 73.05,-6.25 72.78,-6.21 72.51,-6.17 72.24,-6.22 71.98,-6.27 71.74,-6.40 71.50,-6.53 71.31,-6.73 71.13,-6.93 71.02,-7.17 70.91,-7.42 70.88,-7.69 70.85,-7.96 70.92,-8.23 70.98,-8.49 71.12,-8.72 71.26,-8.95 71.47,-9.13 71.68,-9.30 71.93,-9.40 72.19,-9.50 72.46,-9.51 72.73,-9.52 72.99,-9.44 73.25,-9.37 73.48,-9.21 73.70,-9.06 73.86,-8.84 74.02,-8.62 74.11,-8.36 74.19,-8.11 74.19,-7.83 74.19,-7.56 74.10,-7.30 74.01,-7.05 73.84,-6.83 73.67,-6.62 73.45,-6.47 73.22,-6.32 72.96,-6.25 72.69,-6.18 72.69,-6.18 72.69,-6.18 69.37,-5.98 66.05,-5.77 61.21,-5.21 56.38,-4.65 48.46,-4.03 40.54,-3.42 31.99,-2.68 23.45,-1.94 16.40,-1.62 9.36,-1.29 6.37,-0.71 3.38,-0.14 2.23,0.65 1.08,1.44 0.89,1.55 0.70,1.66 0.49,1.72 0.28,1.78 0.07,1.79 -0.14,1.80 -0.36,1.75 -0.57,1.71 -0.77,1.62 -0.96,1.52 -1.13,1.38 -1.30,1.25 -1.43,1.07 -1.56,0.90 -1.65,0.70 -1.73,0.50 -1.77,0.28 -1.80,0.07 -1.78,-0.14 -1.77,-0.36 -1.70,-0.57 -1.63,-0.77 -1.51,-0.96 -1.40,-1.14 -1.24,-1.29 -1.08,-1.44 -1.08,-1.44 L -1.08,-1.44 Z"></path></g><g transform="translate(350 43) rotate(0 -15 42)" stroke="none"><path fill="#ffffff" d="M -0.39,1.56 Q -0.39,1.56 -1.21,1.29 -2.04,1.02 -4.11,3.03 -6.19,5.04 -10.08,9.58 -13.96,14.12 -17.35,18.90 -20.73,23.67 -22.97,29.86 -25.21,36.06 -26.18,43.50 -27.14,50.94 -26.99,57.51 -26.84,64.09 -25.93,69.12 -25.02,74.15 -24.08,77.12 -23.14,80.08 -22.06,82.22 -20.99,84.36 -20.92,84.61 -20.86,84.86 -20.88,85.11 -20.89,85.37 -20.99,85.60 -21.09,85.84 -21.26,86.03 -21.43,86.22 -21.65,86.35 -21.87,86.48 -22.12,86.53 -22.38,86.58 -22.63,86.55 -22.88,86.52 -23.11,86.41 -23.35,86.30 -23.53,86.12 -23.71,85.94 -23.83,85.71 -23.94,85.48 -23.98,85.23 -24.02,84.97 -23.97,84.72 -23.93,84.47 -23.80,84.25 -23.68,84.02 -23.49,83.85 -23.30,83.68 -23.07,83.57 -22.83,83.47 -22.58,83.45 -22.32,83.42 -22.07,83.48 -21.82,83.54 -21.61,83.68 -21.39,83.81 -21.23,84.01 -21.06,84.21 -20.97,84.45 -20.88,84.69 -20.87,84.94 -20.86,85.20 -20.94,85.44 -21.01,85.69 -21.16,85.90 -21.30,86.11 -21.51,86.26 -21.72,86.41 -21.96,86.49 -22.21,86.57 -22.46,86.56 -22.72,86.56 -22.96,86.47 -23.20,86.39 -23.40,86.23 -23.60,86.07 -23.74,85.86 -23.88,85.64 -23.88,85.64 -23.88,85.64 -24.80,83.27 -25.72,80.90 -26.72,77.77 -27.72,74.64 -28.67,69.40 -29.62,64.16 -29.78,57.37 -29.95,50.58 -28.95,42.83 -27.96,35.08 -25.58,28.52 -23.21,21.96 -19.80,17.02 -16.38,12.08 -12.39,7.29 -8.41,2.51 -5.48,0.16 -2.55,-2.17 -1.08,-1.87 0.39,-1.56 0.57,-1.49 0.75,-1.43 0.91,-1.31 1.07,-1.20 1.20,-1.06 1.33,-0.91 1.42,-0.74 1.51,-0.56 1.56,-0.37 1.60,-0.18 1.60,0.00 1.60,0.20 1.55,0.38 1.51,0.57 1.41,0.75 1.32,0.92 1.19,1.06 1.06,1.21 0.90,1.32 0.74,1.43 0.56,1.50 0.38,1.57 0.18,1.59 -0.00,1.61 -0.19,1.59 -0.39,1.56 -0.39,1.56 L -0.39,1.56 Z"></path></g><g transform="translate(310 112) rotate(0 20 -8.5)" stroke="none"><path fill="#ffffff" d="M -1.58,-0.52 Q -1.58,-0.52 -1.03,-2.26 -0.47,-3.99 0.40,-5.75 1.27,-7.50 3.62,-9.27 5.97,-11.04 8.48,-12.04 10.98,-13.04 13.74,-13.99 16.49,-14.95 19.22,-15.38 21.94,-15.80 24.25,-15.97 26.56,-16.13 28.29,-16.53 30.02,-16.93 32.32,-17.07 34.62,-17.21 36.65,-17.80 38.67,-18.39 38.94,-18.40 39.20,-18.42 39.46,-18.35 39.72,-18.28 39.94,-18.14 40.17,-17.99 40.33,-17.78 40.50,-17.57 40.58,-17.31 40.67,-17.06 40.68,-16.79 40.68,-16.53 40.60,-16.27 40.52,-16.02 40.36,-15.80 40.20,-15.59 39.98,-15.43 39.76,-15.28 39.50,-15.20 39.24,-15.13 38.97,-15.14 38.71,-15.15 38.46,-15.25 38.21,-15.34 38.00,-15.52 37.80,-15.69 37.65,-15.91 37.51,-16.14 37.45,-16.40 37.39,-16.66 37.42,-16.93 37.44,-17.20 37.55,-17.44 37.66,-17.69 37.84,-17.88 38.03,-18.08 38.26,-18.21 38.50,-18.34 38.76,-18.38 39.02,-18.43 39.29,-18.39 39.55,-18.35 39.79,-18.23 40.03,-18.10 40.22,-17.91 40.40,-17.72 40.52,-17.48 40.63,-17.24 40.67,-16.97 40.70,-16.70 40.64,-16.44 40.59,-16.18 40.45,-15.95 40.32,-15.72 40.12,-15.54 39.91,-15.37 39.67,-15.26 39.42,-15.16 39.42,-15.16 39.42,-15.16 37.12,-14.74 34.83,-14.32 32.71,-14.16 30.60,-13.99 28.69,-13.66 26.78,-13.34 24.59,-13.15 22.39,-12.96 19.94,-12.56 17.49,-12.16 14.82,-11.16 12.15,-10.17 10.02,-9.28 7.89,-8.40 6.09,-7.08 4.29,-5.77 3.53,-4.34 2.77,-2.90 2.18,-1.18 1.58,0.52 1.50,0.71 1.41,0.89 1.28,1.04 1.15,1.20 0.99,1.32 0.83,1.44 0.65,1.52 0.46,1.60 0.26,1.63 0.06,1.67 -0.13,1.65 -0.33,1.63 -0.52,1.57 -0.71,1.51 -0.88,1.40 -1.05,1.29 -1.19,1.15 -1.33,1.00 -1.43,0.83 -1.53,0.65 -1.59,0.46 -1.65,0.26 -1.65,0.06 -1.66,-0.13 -1.62,-0.33 -1.58,-0.52 -1.58,-0.52 L -1.58,-0.52 Z"></path></g><g transform="translate(350 95) rotate(0 36.5 -10.5)" stroke="none"><path fill="#ffffff" d="M 0,-1.86 Q 0,-1.86 1.43,-1.92 2.87,-1.98 5.39,-2.17 7.92,-2.36 12.36,-3.54 16.80,-4.72 21.66,-5.80 26.52,-6.88 32.18,-9.29 37.85,-11.70 42.87,-14.15 47.89,-16.61 50.29,-17.92 52.70,-19.22 53.45,-20.22 54.21,-21.22 52.49,-22.23 50.77,-23.24 49.12,-23.47 47.47,-23.70 45.61,-23.84 43.76,-23.98 41.82,-24.06 39.89,-24.14 37.82,-23.67 35.75,-23.20 33.40,-22.46 31.06,-21.71 29.68,-20.90 28.30,-20.09 27.94,-18.86 27.59,-17.64 27.59,-15.91 27.60,-14.19 28.62,-12.48 29.63,-10.78 31.43,-8.89 33.22,-7.00 35.37,-5.34 37.53,-3.68 40.08,-2.43 42.64,-1.19 45.45,-0.07 48.26,1.04 50.85,1.80 53.44,2.55 56.19,2.86 58.93,3.17 61.24,3.32 63.55,3.46 64.85,2.90 66.15,2.35 67.43,1.14 68.72,-0.06 69.81,-2.39 70.90,-4.72 71.07,-4.94 71.24,-5.16 71.47,-5.32 71.70,-5.47 71.97,-5.54 72.24,-5.61 72.51,-5.60 72.79,-5.58 73.05,-5.47 73.30,-5.37 73.51,-5.19 73.72,-5.00 73.86,-4.77 74.00,-4.53 74.06,-4.25 74.12,-3.98 74.09,-3.71 74.05,-3.43 73.93,-3.18 73.82,-2.93 73.62,-2.73 73.43,-2.53 73.18,-2.40 72.94,-2.28 72.66,-2.23 72.39,-2.19 72.12,-2.24 71.84,-2.29 71.60,-2.42 71.35,-2.55 71.17,-2.75 70.98,-2.96 70.86,-3.21 70.75,-3.46 70.72,-3.74 70.69,-4.02 70.76,-4.29 70.82,-4.56 70.96,-4.79 71.11,-5.03 71.32,-5.21 71.53,-5.38 71.79,-5.49 72.05,-5.59 72.33,-5.60 72.61,-5.61 72.87,-5.53 73.14,-5.46 73.37,-5.30 73.60,-5.14 73.76,-4.92 73.93,-4.70 74.01,-4.43 74.10,-4.17 74.10,-3.89 74.09,-3.61 74.00,-3.35 73.91,-3.09 73.91,-3.09 73.91,-3.09 72.33,-0.49 70.74,2.11 68.96,3.64 67.17,5.17 65.32,5.64 63.46,6.12 61.04,5.99 58.62,5.85 55.66,5.51 52.70,5.17 49.97,4.39 47.25,3.61 44.33,2.47 41.41,1.33 38.60,-0.03 35.79,-1.39 33.44,-3.17 31.08,-4.95 29.02,-7.10 26.96,-9.24 25.68,-11.61 24.39,-13.99 24.40,-16.45 24.41,-18.91 25.41,-20.76 26.41,-22.62 28.23,-23.65 30.04,-24.68 32.51,-25.55 34.97,-26.43 37.45,-27.07 39.94,-27.71 41.95,-27.70 43.96,-27.69 45.98,-27.61 48.00,-27.53 50.05,-27.25 52.11,-26.97 54.16,-26.07 56.21,-25.17 56.85,-23.84 57.48,-22.51 57.10,-20.94 56.72,-19.37 55.41,-18.08 54.10,-16.78 51.64,-15.40 49.18,-14.01 44.11,-11.47 39.04,-8.94 33.14,-6.38 27.24,-3.81 22.47,-2.66 17.70,-1.51 13.01,-0.14 8.32,1.21 5.59,1.59 2.87,1.98 1.43,1.92 0,1.86 -0.22,1.83 -0.44,1.80 -0.65,1.72 -0.86,1.65 -1.05,1.52 -1.23,1.39 -1.38,1.22 -1.53,1.05 -1.63,0.85 -1.74,0.66 -1.79,0.44 -1.85,0.22 -1.85,-0.00 -1.85,-0.22 -1.79,-0.44 -1.74,-0.66 -1.63,-0.85 -1.53,-1.05 -1.38,-1.22 -1.23,-1.39 -1.05,-1.52 -0.86,-1.65 -0.65,-1.72 -0.44,-1.80 -0.22,-1.83 0.00,-1.86 0.00,-1.86 L 0,-1.86 Z"></path></g><g transform="translate(421 71) rotate(0 11.5 4)" stroke="none"><path fill="#ffffff" d="M 1.49,-1.49 Q 1.49,-1.49 3.14,0.31 4.80,2.11 6.47,5.09 8.14,8.06 9.10,9.83 10.05,11.60 10.80,12.88 11.56,14.16 11.92,14.42 12.29,14.68 12.37,14.90 12.45,15.12 12.48,15.35 12.51,15.58 12.49,15.82 12.46,16.05 12.38,16.27 12.29,16.50 12.16,16.69 12.03,16.88 11.85,17.04 11.68,17.20 11.47,17.31 11.26,17.42 11.03,17.48 10.80,17.54 10.57,17.54 10.33,17.54 10.10,17.48 9.87,17.43 9.66,17.32 9.45,17.21 9.27,17.05 9.10,16.90 8.96,16.70 8.83,16.51 9.02,15.40 9.21,14.29 8.80,12.14 8.40,9.99 8.27,8.26 8.13,6.52 8.75,4.34 9.36,2.15 11.24,-0.31 13.12,-2.78 15.16,-4.40 17.20,-6.03 19.05,-7.82 20.90,-9.61 21.16,-9.77 21.41,-9.93 21.70,-10.00 21.99,-10.07 22.29,-10.05 22.59,-10.02 22.86,-9.91 23.14,-9.79 23.36,-9.59 23.58,-9.39 23.73,-9.13 23.88,-8.86 23.93,-8.57 23.99,-8.28 23.95,-7.98 23.91,-7.68 23.77,-7.41 23.64,-7.15 23.43,-6.93 23.22,-6.72 22.95,-6.59 22.68,-6.46 22.38,-6.42 22.09,-6.38 21.79,-6.43 21.50,-6.49 21.24,-6.64 20.98,-6.79 20.78,-7.01 20.58,-7.23 20.46,-7.51 20.34,-7.78 20.32,-8.08 20.29,-8.38 20.37,-8.67 20.44,-8.96 20.60,-9.21 20.76,-9.47 21.00,-9.65 21.23,-9.84 21.51,-9.94 21.79,-10.05 22.09,-10.05 22.39,-10.06 22.68,-9.97 22.96,-9.89 23.21,-9.71 23.45,-9.54 23.62,-9.29 23.80,-9.05 23.89,-8.76 23.97,-8.48 23.96,-8.18 23.96,-7.88 23.85,-7.60 23.75,-7.31 23.56,-7.08 23.37,-6.85 23.37,-6.85 23.37,-6.85 21.34,-5.16 19.30,-3.47 17.63,-2.05 15.95,-0.64 14.51,1.33 13.07,3.30 12.63,4.81 12.19,6.33 12.28,7.87 12.38,9.42 12.33,12.05 12.29,14.68 12.37,14.90 12.45,15.12 12.48,15.35 12.51,15.58 12.49,15.82 12.46,16.05 12.38,16.27 12.29,16.50 12.16,16.69 12.03,16.88 11.85,17.04 11.68,17.20 11.47,17.31 11.26,17.42 11.03,17.48 10.80,17.54 10.57,17.54 10.33,17.54 10.10,17.48 9.87,17.43 9.66,17.32 9.45,17.21 9.27,17.05 9.10,16.90 8.96,16.70 8.83,16.51 8.60,16.22 8.37,15.94 7.73,14.59 7.09,13.24 6.11,11.53 5.13,9.81 3.61,7.29 2.09,4.78 0.30,3.13 -1.49,1.49 -1.65,1.29 -1.80,1.09 -1.91,0.86 -2.01,0.62 -2.06,0.37 -2.10,0.12 -2.09,-0.12 -2.07,-0.38 -2.00,-0.62 -1.92,-0.86 -1.79,-1.08 -1.66,-1.30 -1.48,-1.48 -1.30,-1.66 -1.08,-1.79 -0.86,-1.92 -0.62,-2.00 -0.38,-2.07 -0.12,-2.09 0.12,-2.10 0.37,-2.06 0.62,-2.01 0.86,-1.91 1.09,-1.80 1.29,-1.64 1.49,-1.49 1.49,-1.49 L 1.49,-1.49 Z"></path></g><g transform="translate(498 21) rotate(0 1.5 39)" stroke="none"><path fill="#ffffff" d="M 1.79,0 Q 1.79,0 1.75,2.01 1.72,4.02 1.66,8.90 1.61,13.78 1.57,19.02 1.52,24.25 1.50,32.23 1.47,40.20 1.73,47.30 2.00,54.40 2.67,59.67 3.35,64.94 3.64,68.38 3.93,71.83 2.63,75.12 1.34,78.42 1.10,78.40 0.87,78.38 0.66,78.28 0.44,78.19 0.27,78.03 0.10,77.87 -0.00,77.67 -0.12,77.46 -0.16,77.23 -0.20,77.00 -0.16,76.77 -0.13,76.54 -0.02,76.33 0.07,76.12 0.24,75.96 0.41,75.79 0.62,75.69 0.83,75.59 1.06,75.56 1.30,75.53 1.53,75.58 1.75,75.63 1.96,75.74 2.16,75.86 2.31,76.04 2.47,76.21 2.56,76.43 2.65,76.65 2.66,76.88 2.68,77.11 2.62,77.34 2.56,77.57 2.43,77.76 2.30,77.96 2.12,78.10 1.93,78.25 1.71,78.32 1.49,78.40 1.26,78.41 1.02,78.41 0.80,78.34 0.58,78.27 0.39,78.13 0.20,77.99 0.07,77.80 -0.06,77.60 -0.12,77.38 -0.19,77.16 -0.18,76.92 -0.17,76.69 -0.09,76.47 -0.00,76.25 0.14,76.07 0.29,75.89 0.48,75.77 0.68,75.64 0.91,75.59 1.14,75.54 1.14,75.54 1.14,75.54 1.16,73.80 1.19,72.07 0.88,68.68 0.58,65.30 -0.13,59.91 -0.85,54.52 -1.16,47.36 -1.47,40.21 -1.50,32.23 -1.52,24.25 -1.57,19.02 -1.61,13.78 -1.66,8.90 -1.72,4.02 -1.75,2.01 -1.79,0 -1.76,-0.21 -1.74,-0.42 -1.66,-0.63 -1.58,-0.83 -1.46,-1.01 -1.34,-1.18 -1.18,-1.33 -1.01,-1.47 -0.82,-1.57 -0.63,-1.67 -0.42,-1.72 -0.21,-1.78 0.00,-1.78 0.21,-1.78 0.42,-1.72 0.63,-1.67 0.82,-1.57 1.01,-1.47 1.18,-1.33 1.34,-1.18 1.46,-1.01 1.58,-0.83 1.66,-0.63 1.74,-0.42 1.76,-0.21 1.79,0.00 1.79,0.00 L 1.79,0 Z"></path></g><g transform="translate(458 39) rotate(0 33 2)" stroke="none"><path fill="#ffffff" d="M 0,-1.67 Q 0,-1.67 2.58,-1.62 5.17,-1.57 9.77,-1.25 14.36,-0.92 19.14,-0.78 23.92,-0.63 30.30,-0.27 36.67,0.08 40.51,0.24 44.35,0.40 47.48,0.76 50.60,1.12 53.10,1.57 55.60,2.02 57.73,2.20 59.86,2.38 62.67,2.43 65.47,2.48 65.70,2.53 65.94,2.57 66.15,2.69 66.36,2.82 66.52,3.00 66.68,3.18 66.77,3.40 66.87,3.63 66.89,3.87 66.90,4.11 66.84,4.34 66.78,4.58 66.65,4.78 66.52,4.98 66.33,5.13 66.14,5.28 65.91,5.37 65.68,5.45 65.44,5.45 65.20,5.46 64.97,5.38 64.73,5.31 64.54,5.17 64.34,5.02 64.20,4.83 64.06,4.63 64.00,4.39 63.93,4.16 63.94,3.92 63.94,3.68 64.03,3.45 64.12,3.23 64.27,3.04 64.42,2.85 64.63,2.72 64.83,2.59 65.07,2.54 65.30,2.48 65.55,2.50 65.79,2.52 66.01,2.62 66.23,2.72 66.41,2.88 66.59,3.05 66.70,3.26 66.82,3.47 66.87,3.71 66.91,3.95 66.87,4.19 66.84,4.43 66.73,4.64 66.62,4.86 66.45,5.03 66.27,5.20 66.06,5.30 65.84,5.41 65.60,5.44 65.36,5.47 65.36,5.47 65.36,5.47 62.50,5.26 59.64,5.06 57.38,4.87 55.13,4.68 52.71,4.26 50.30,3.84 47.27,3.50 44.25,3.17 40.39,3.04 36.52,2.91 30.19,2.59 23.85,2.27 19.01,2.17 14.17,2.07 9.67,1.82 5.17,1.57 2.58,1.62 0,1.67 -0.20,1.65 -0.40,1.62 -0.59,1.55 -0.77,1.48 -0.94,1.37 -1.11,1.25 -1.24,1.10 -1.38,0.95 -1.47,0.77 -1.56,0.59 -1.61,0.39 -1.66,0.20 -1.66,-0.00 -1.66,-0.20 -1.61,-0.39 -1.56,-0.59 -1.47,-0.77 -1.38,-0.95 -1.24,-1.10 -1.11,-1.25 -0.94,-1.37 -0.77,-1.48 -0.59,-1.55 -0.40,-1.62 -0.20,-1.65 0.00,-1.67 0.00,-1.67 L 0,-1.67 Z"></path></g><g transform="translate(546 16) rotate(0 2.5 34)" stroke="none"><path fill="#ffffff" d="M 1.74,0 Q 1.74,0 1.68,2.29 1.62,4.59 1.86,6.92 2.10,9.24 2.48,11.98 2.85,14.71 3.01,17.67 3.17,20.63 3.79,23.78 4.41,26.93 4.69,31.85 4.96,36.78 5.35,39.94 5.75,43.09 5.96,45.05 6.16,47.01 6.36,48.13 6.55,49.24 6.69,50.32 6.82,51.39 6.89,52.52 6.97,53.65 6.68,54.76 6.39,55.86 6.50,57.77 6.60,59.68 6.66,61.63 6.72,63.58 5.38,66.72 4.04,69.87 3.67,70.11 3.29,70.35 2.85,70.46 2.42,70.56 1.97,70.52 1.53,70.48 1.12,70.31 0.71,70.13 0.38,69.83 0.04,69.53 -0.16,69.14 -0.38,68.75 -0.46,68.31 -0.55,67.87 -0.48,67.42 -0.42,66.98 -0.22,66.58 -0.02,66.18 0.29,65.87 0.61,65.55 1.01,65.36 1.41,65.16 1.85,65.10 2.30,65.04 2.74,65.13 3.18,65.22 3.56,65.44 3.95,65.66 4.25,65.99 4.55,66.33 4.72,66.74 4.89,67.15 4.93,67.60 4.96,68.04 4.85,68.48 4.74,68.91 4.50,69.29 4.26,69.66 3.91,69.94 3.56,70.22 3.14,70.37 2.71,70.52 2.27,70.53 1.82,70.54 1.39,70.41 0.97,70.28 0.61,70.01 0.24,69.75 -0.01,69.39 -0.26,69.02 -0.39,68.59 -0.52,68.16 -0.51,67.72 -0.49,67.27 -0.34,66.85 -0.18,66.43 0.09,66.09 0.37,65.74 0.37,65.74 0.37,65.74 0.82,64.62 1.28,63.51 1.35,61.57 1.41,59.63 1.55,57.83 1.69,56.03 2.34,54.67 2.99,53.32 3.10,51.39 3.22,49.46 3.27,48.36 3.32,47.26 3.18,45.35 3.05,43.43 2.63,40.18 2.21,36.94 1.94,32.21 1.66,27.47 0.98,24.14 0.31,20.80 0.11,17.97 -0.07,15.15 -0.51,12.38 -0.95,9.61 -1.29,7.10 -1.62,4.60 -1.68,2.30 -1.74,0 -1.72,-0.20 -1.69,-0.41 -1.62,-0.61 -1.54,-0.81 -1.42,-0.98 -1.30,-1.15 -1.15,-1.29 -0.99,-1.43 -0.80,-1.53 -0.61,-1.63 -0.41,-1.68 -0.21,-1.73 0.00,-1.73 0.21,-1.73 0.41,-1.68 0.61,-1.63 0.80,-1.53 0.99,-1.43 1.15,-1.29 1.30,-1.15 1.42,-0.98 1.54,-0.81 1.62,-0.61 1.69,-0.41 1.72,-0.20 1.74,0.00 1.74,0.00 L 1.74,0 Z"></path></g><g transform="translate(618 46) rotate(0 -6.5 12.5)" stroke="none"><path fill="#ffffff" d="M -1.01,2.02 Q -1.01,2.02 -2.16,1.49 -3.31,0.95 -4.61,0.79 -5.91,0.63 -7.92,0.41 -9.94,0.18 -11.68,0.13 -13.42,0.07 -14.83,0.34 -16.24,0.60 -17.17,1.22 -18.11,1.84 -19.42,2.65 -20.74,3.45 -21.51,4.91 -22.29,6.37 -22.29,7.62 -22.29,8.86 -22.04,10.34 -21.79,11.81 -21.24,12.82 -20.68,13.84 -19.94,14.78 -19.20,15.73 -18.11,17.04 -17.01,18.36 -15.95,19.49 -14.89,20.63 -13.98,21.26 -13.07,21.88 -12.14,22.41 -11.20,22.93 -9.71,23.79 -8.22,24.66 -6.80,25.28 -5.38,25.90 -4.10,26.11 -2.82,26.31 -1.47,26.41 -0.12,26.52 0.92,26.07 1.98,25.62 3.54,24.52 5.09,23.42 6.32,21.93 7.55,20.45 8.34,18.55 9.13,16.66 8.93,14.36 8.72,12.05 7.85,9.69 6.98,7.32 5.81,5.50 4.64,3.68 3.33,2.40 2.01,1.12 0.82,0.02 -0.36,-1.08 -1.48,-1.33 -2.59,-1.58 -4.13,-1.72 -5.66,-1.86 -7.76,-2.02 -9.85,-2.17 -11.62,-2.18 -13.39,-2.20 -15.00,-2.17 -16.61,-2.14 -18.64,-1.67 -20.66,-1.20 -20.99,-1.19 -21.31,-1.19 -21.62,-1.29 -21.93,-1.39 -22.19,-1.58 -22.45,-1.77 -22.64,-2.03 -22.82,-2.30 -22.92,-2.61 -23.01,-2.92 -23.00,-3.25 -22.98,-3.57 -22.87,-3.87 -22.75,-4.18 -22.55,-4.43 -22.34,-4.68 -22.07,-4.85 -21.79,-5.02 -21.48,-5.10 -21.16,-5.17 -20.84,-5.14 -20.52,-5.11 -20.22,-4.98 -19.92,-4.85 -19.68,-4.63 -19.44,-4.41 -19.29,-4.13 -19.13,-3.84 -19.07,-3.52 -19.02,-3.20 -19.06,-2.88 -19.11,-2.56 -19.26,-2.27 -19.41,-1.98 -19.64,-1.76 -19.87,-1.53 -20.16,-1.39 -20.45,-1.25 -20.77,-1.21 -21.10,-1.17 -21.41,-1.23 -21.73,-1.30 -22.01,-1.46 -22.29,-1.62 -22.51,-1.87 -22.72,-2.11 -22.85,-2.41 -22.97,-2.71 -22.99,-3.03 -23.02,-3.36 -22.93,-3.67 -22.85,-3.98 -22.67,-4.25 -22.50,-4.53 -22.24,-4.73 -21.99,-4.93 -21.68,-5.03 -21.38,-5.14 -21.38,-5.14 -21.38,-5.14 -18.98,-5.47 -16.59,-5.81 -14.95,-5.74 -13.32,-5.68 -11.52,-5.62 -9.71,-5.55 -7.47,-5.53 -5.22,-5.50 -3.30,-5.22 -1.38,-4.94 0.22,-4.20 1.82,-3.45 2.97,-2.21 4.12,-0.97 5.61,0.55 7.09,2.08 8.46,4.16 9.83,6.25 10.86,9.01 11.90,11.77 12.11,14.76 12.33,17.76 11.41,20.21 10.50,22.67 9.05,24.65 7.61,26.63 5.59,28.28 3.57,29.93 1.62,30.53 -0.32,31.13 -1.98,31.00 -3.64,30.87 -5.40,30.53 -7.15,30.19 -8.80,29.52 -10.44,28.86 -12.12,28.05 -13.80,27.23 -14.90,26.53 -16.00,25.82 -17.17,24.90 -18.35,23.98 -19.49,22.83 -20.62,21.68 -21.99,20.31 -23.35,18.95 -24.35,17.65 -25.35,16.36 -26.17,14.81 -27.00,13.26 -27.28,11.87 -27.57,10.48 -27.49,9.41 -27.41,8.34 -27.23,7.21 -27.06,6.08 -26.04,4.24 -25.02,2.40 -24.07,1.19 -23.12,-0.02 -21.63,-0.95 -20.15,-1.88 -18.56,-2.64 -16.98,-3.39 -15.16,-3.67 -13.34,-3.94 -11.54,-3.91 -9.74,-3.88 -7.49,-3.89 -5.24,-3.90 -3.26,-3.58 -1.28,-3.25 -0.13,-2.64 1.01,-2.02 1.24,-1.87 1.47,-1.72 1.65,-1.52 1.84,-1.32 1.97,-1.08 2.10,-0.84 2.17,-0.58 2.24,-0.31 2.25,-0.04 2.25,0.22 2.19,0.49 2.13,0.76 2.01,1.00 1.89,1.25 1.71,1.46 1.53,1.66 1.31,1.82 1.09,1.98 0.84,2.09 0.58,2.19 0.31,2.23 0.04,2.26 -0.22,2.24 -0.49,2.21 -0.75,2.12 -1.01,2.02 -1.01,2.02 L -1.01,2.02 Z"></path></g><g transform="translate(668 25) rotate(0 40.5 22)" stroke="none"><path fill="#ffffff" d="M 0.39,-1.56 Q 0.39,-1.56 2.68,-0.94 4.97,-0.33 8.51,0.51 12.05,1.35 19.32,3.16 26.60,4.97 35.13,6.89 43.66,8.81 49.88,10.21 56.10,11.61 60.17,12.49 64.25,13.37 66.93,14.35 69.62,15.33 72.17,16.32 74.72,17.30 76.50,18.31 78.28,19.31 79.59,20.53 80.90,21.74 80.63,22.98 80.36,24.23 77.08,25.32 73.80,26.40 65.08,29.00 56.35,31.60 48.26,33.28 40.17,34.96 32.51,37.36 24.85,39.77 20.10,41.08 15.36,42.40 13.11,43.22 10.87,44.04 9.05,44.66 7.22,45.29 6.97,45.32 6.72,45.35 6.46,45.30 6.21,45.24 5.99,45.11 5.77,44.98 5.60,44.79 5.44,44.60 5.34,44.36 5.24,44.12 5.23,43.87 5.21,43.61 5.28,43.36 5.34,43.11 5.49,42.90 5.63,42.69 5.83,42.53 6.03,42.37 6.28,42.29 6.52,42.21 6.77,42.20 7.03,42.20 7.27,42.28 7.52,42.36 7.72,42.51 7.93,42.67 8.07,42.88 8.22,43.09 8.29,43.34 8.36,43.58 8.35,43.84 8.34,44.10 8.25,44.33 8.15,44.57 7.99,44.77 7.82,44.97 7.61,45.10 7.39,45.23 7.14,45.29 6.89,45.35 6.63,45.32 6.38,45.30 6.14,45.19 5.91,45.09 5.72,44.91 5.53,44.74 5.41,44.51 5.29,44.29 5.25,44.03 5.20,43.78 5.24,43.53 5.28,43.27 5.40,43.05 5.52,42.82 5.70,42.64 5.89,42.46 6.12,42.35 6.35,42.24 6.35,42.24 6.35,42.24 8.13,41.84 9.90,41.43 12.24,40.55 14.59,39.67 19.28,38.33 23.97,36.98 31.75,34.49 39.54,32.00 47.48,30.28 55.43,28.56 64.16,25.85 72.88,23.15 74.85,22.45 76.82,21.75 75.29,20.77 73.76,19.80 71.23,18.83 68.69,17.86 66.18,16.94 63.67,16.02 59.59,15.16 55.50,14.29 49.28,12.91 43.05,11.54 34.48,9.64 25.91,7.74 18.66,5.98 11.40,4.22 7.81,3.42 4.22,2.63 1.91,2.09 -0.39,1.56 -0.57,1.49 -0.75,1.42 -0.91,1.31 -1.07,1.20 -1.19,1.05 -1.32,0.90 -1.41,0.73 -1.50,0.56 -1.55,0.37 -1.59,0.18 -1.59,-0.00 -1.59,-0.19 -1.54,-0.38 -1.50,-0.57 -1.41,-0.74 -1.32,-0.91 -1.19,-1.06 -1.06,-1.20 -0.90,-1.31 -0.74,-1.42 -0.56,-1.49 -0.37,-1.56 -0.18,-1.58 0.00,-1.60 0.19,-1.58 0.39,-1.56 0.39,-1.56 L 0.39,-1.56 Z"></path></g></svg>