<svg version="1.1" xmlns="http://www.w3.org/2000/svg" viewBox="0 0 330 316" width="330" height="316">
  <!-- svg-source:excalidraw -->

  <defs>
    <style>
      @font-face {
        font-family: "Virgil";
        src: url("https://excalidraw.com/Virgil.woff2");
      }
      @font-face {
        font-family: "Cascadia";
        src: url("https://excalidraw.com/Cascadia.woff2");
      }
    </style>
  </defs>
  <g stroke-linecap="round" transform="translate(10 9.999999999999943) rotate(0 155 148.00000000000003)"><path d="M310 148 C310 151.87, 309.84 155.75, 309.52 159.61 C309.2 163.47, 308.73 167.33, 308.09 171.15 C307.46 174.98, 306.66 178.79, 305.72 182.55 C304.77 186.31, 303.67 190.05, 302.41 193.73 C301.16 197.42, 299.75 201.06, 298.2 204.64 C296.65 208.21, 294.95 211.74, 293.11 215.19 C291.27 218.64, 289.28 222.03, 287.16 225.33 C285.04 228.63, 282.78 231.86, 280.4 234.99 C278.01 238.12, 275.5 241.18, 272.86 244.12 C270.23 247.06, 267.47 249.91, 264.6 252.65 C261.74 255.39, 258.75 258.03, 255.66 260.54 C252.58 263.05, 249.39 265.46, 246.11 267.73 C242.83 270.01, 239.44 272.17, 235.99 274.19 C232.53 276.21, 228.98 278.11, 225.37 279.87 C221.76 281.63, 218.06 283.25, 214.32 284.73 C210.57 286.22, 206.75 287.56, 202.9 288.76 C199.04 289.95, 195.13 291.01, 191.18 291.91 C187.24 292.81, 183.25 293.57, 179.25 294.18 C175.24 294.78, 171.2 295.24, 167.16 295.54 C163.12 295.85, 159.05 296, 155 296 C150.95 296, 146.88 295.85, 142.84 295.54 C138.8 295.24, 134.76 294.78, 130.75 294.18 C126.75 293.57, 122.76 292.81, 118.82 291.91 C114.87 291.01, 110.96 289.95, 107.1 288.76 C103.25 287.56, 99.43 286.22, 95.68 284.73 C91.94 283.25, 88.24 281.63, 84.63 279.87 C81.02 278.11, 77.47 276.21, 74.01 274.19 C70.56 272.17, 67.17 270.01, 63.89 267.73 C60.61 265.46, 57.42 263.05, 54.34 260.54 C51.25 258.03, 48.26 255.39, 45.4 252.65 C42.53 249.91, 39.77 247.06, 37.14 244.12 C34.5 241.18, 31.99 238.12, 29.6 234.99 C27.22 231.86, 24.96 228.63, 22.84 225.33 C20.72 222.03, 18.73 218.64, 16.89 215.19 C15.05 211.74, 13.35 208.21, 11.8 204.64 C10.25 201.06, 8.84 197.42, 7.59 193.73 C6.33 190.05, 5.23 186.31, 4.28 182.55 C3.34 178.79, 2.54 174.98, 1.91 171.15 C1.27 167.33, 0.8 163.47, 0.48 159.61 C0.16 155.75, 0 151.87, 0 148 C0 144.13, 0.16 140.25, 0.48 136.39 C0.8 132.53, 1.27 128.67, 1.91 124.85 C2.54 121.02, 3.34 117.21, 4.28 113.45 C5.23 109.69, 6.33 105.95, 7.59 102.27 C8.84 98.58, 10.25 94.94, 11.8 91.36 C13.35 87.79, 15.05 84.26, 16.89 80.81 C18.73 77.36, 20.72 73.97, 22.84 70.67 C24.96 67.37, 27.22 64.14, 29.6 61.01 C31.99 57.88, 34.5 54.82, 37.14 51.88 C39.77 48.94, 42.53 46.09, 45.4 43.35 C48.26 40.61, 51.25 37.97, 54.34 35.46 C57.42 32.95, 60.61 30.54, 63.89 28.27 C67.17 25.99, 70.56 23.83, 74.01 21.81 C77.47 19.79, 81.02 17.89, 84.63 16.13 C88.24 14.37, 91.94 12.75, 95.68 11.27 C99.43 9.78, 103.25 8.44, 107.1 7.24 C110.96 6.05, 114.87 4.99, 118.82 4.09 C122.76 3.19, 126.75 2.43, 130.75 1.82 C134.76 1.22, 138.8 0.76, 142.84 0.46 C146.88 0.15, 150.95 0, 155 0 C159.05 0, 163.12 0.15, 167.16 0.46 C171.2 0.76, 175.24 1.22, 179.25 1.82 C183.25 2.43, 187.24 3.19, 191.18 4.09 C195.13 4.99, 199.04 6.05, 202.9 7.24 C206.75 8.44, 210.57 9.78, 214.32 11.27 C218.06 12.75, 221.76 14.37, 225.37 16.13 C228.98 17.89, 232.53 19.79, 235.99 21.81 C239.44 23.83, 242.83 25.99, 246.11 28.27 C249.39 30.54, 252.58 32.95, 255.66 35.46 C258.75 37.97, 261.74 40.61, 264.6 43.35 C267.47 46.09, 270.23 48.94, 272.86 51.88 C275.5 54.82, 278.01 57.88, 280.4 61.01 C282.78 64.14, 285.04 67.37, 287.16 70.67 C289.28 73.97, 291.27 77.36, 293.11 80.81 C294.95 84.26, 296.65 87.79, 298.2 91.36 C299.75 94.94, 301.16 98.58, 302.41 102.27 C303.67 105.95, 304.77 109.69, 305.72 113.45 C306.66 117.21, 307.46 121.02, 308.09 124.85 C308.73 128.67, 309.2 132.53, 309.52 136.39 C309.84 140.25, 310 144.13, 310 148" stroke="none" stroke-width="0" fill="#212121"></path><path d="M310 148 C310 151.87, 309.84 155.75, 309.52 159.61 C309.2 163.47, 308.73 167.33, 308.09 171.15 C307.46 174.98, 306.66 178.79, 305.72 182.55 C304.77 186.31, 303.67 190.05, 302.41 193.73 C301.16 197.42, 299.75 201.06, 298.2 204.64 C296.65 208.21, 294.95 211.74, 293.11 215.19 C291.27 218.64, 289.28 222.03, 287.16 225.33 C285.04 228.63, 282.78 231.86, 280.4 234.99 C278.01 238.12, 275.5 241.18, 272.86 244.12 C270.23 247.06, 267.47 249.91, 264.6 252.65 C261.74 255.39, 258.75 258.03, 255.66 260.54 C252.58 263.05, 249.39 265.46, 246.11 267.73 C242.83 270.01, 239.44 272.17, 235.99 274.19 C232.53 276.21, 228.98 278.11, 225.37 279.87 C221.76 281.63, 218.06 283.25, 214.32 284.73 C210.57 286.22, 206.75 287.56, 202.9 288.76 C199.04 289.95, 195.13 291.01, 191.18 291.91 C187.24 292.81, 183.25 293.57, 179.25 294.18 C175.24 294.78, 171.2 295.24, 167.16 295.54 C163.12 295.85, 159.05 296, 155 296 C150.95 296, 146.88 295.85, 142.84 295.54 C138.8 295.24, 134.76 294.78, 130.75 294.18 C126.75 293.57, 122.76 292.81, 118.82 291.91 C114.87 291.01, 110.96 289.95, 107.1 288.76 C103.25 287.56, 99.43 286.22, 95.68 284.73 C91.94 283.25, 88.24 281.63, 84.63 279.87 C81.02 278.11, 77.47 276.21, 74.01 274.19 C70.56 272.17, 67.17 270.01, 63.89 267.73 C60.61 265.46, 57.42 263.05, 54.34 260.54 C51.25 258.03, 48.26 255.39, 45.4 252.65 C42.53 249.91, 39.77 247.06, 37.14 244.12 C34.5 241.18, 31.99 238.12, 29.6 234.99 C27.22 231.86, 24.96 228.63, 22.84 225.33 C20.72 222.03, 18.73 218.64, 16.89 215.19 C15.05 211.74, 13.35 208.21, 11.8 204.64 C10.25 201.06, 8.84 197.42, 7.59 193.73 C6.33 190.05, 5.23 186.31, 4.28 182.55 C3.34 178.79, 2.54 174.98, 1.91 171.15 C1.27 167.33, 0.8 163.47, 0.48 159.61 C0.16 155.75, 0 151.87, 0 148 C0 144.13, 0.16 140.25, 0.48 136.39 C0.8 132.53, 1.27 128.67, 1.91 124.85 C2.54 121.02, 3.34 117.21, 4.28 113.45 C5.23 109.69, 6.33 105.95, 7.59 102.27 C8.84 98.58, 10.25 94.94, 11.8 91.36 C13.35 87.79, 15.05 84.26, 16.89 80.81 C18.73 77.36, 20.72 73.97, 22.84 70.67 C24.96 67.37, 27.22 64.14, 29.6 61.01 C31.99 57.88, 34.5 54.82, 37.14 51.88 C39.77 48.94, 42.53 46.09, 45.4 43.35 C48.26 40.61, 51.25 37.97, 54.34 35.46 C57.42 32.95, 60.61 30.54, 63.89 28.27 C67.17 25.99, 70.56 23.83, 74.01 21.81 C77.47 19.79, 81.02 17.89, 84.63 16.13 C88.24 14.37, 91.94 12.75, 95.68 11.27 C99.43 9.78, 103.25 8.44, 107.1 7.24 C110.96 6.05, 114.87 4.99, 118.82 4.09 C122.76 3.19, 126.75 2.43, 130.75 1.82 C134.76 1.22, 138.8 0.76, 142.84 0.46 C146.88 0.15, 150.95 0, 155 0 C159.05 0, 163.12 0.15, 167.16 0.46 C171.2 0.76, 175.24 1.22, 179.25 1.82 C183.25 2.43, 187.24 3.19, 191.18 4.09 C195.13 4.99, 199.04 6.05, 202.9 7.24 C206.75 8.44, 210.57 9.78, 214.32 11.27 C218.06 12.75, 221.76 14.37, 225.37 16.13 C228.98 17.89, 232.53 19.79, 235.99 21.81 C239.44 23.83, 242.83 25.99, 246.11 28.27 C249.39 30.54, 252.58 32.95, 255.66 35.46 C258.75 37.97, 261.74 40.61, 264.6 43.35 C267.47 46.09, 270.23 48.94, 272.86 51.88 C275.5 54.82, 278.01 57.88, 280.4 61.01 C282.78 64.14, 285.04 67.37, 287.16 70.67 C289.28 73.97, 291.27 77.36, 293.11 80.81 C294.95 84.26, 296.65 87.79, 298.2 91.36 C299.75 94.94, 301.16 98.58, 302.41 102.27 C303.67 105.95, 304.77 109.69, 305.72 113.45 C306.66 117.21, 307.46 121.02, 308.09 124.85 C308.73 128.67, 309.2 132.53, 309.52 136.39 C309.84 140.25, 310 144.13, 310 148" stroke="none" stroke-width="4" fill="none"></path></g><g transform="translate(60.41054727560481 42.38848432155379) rotate(0 110.64053015206616 110.64053015206619)"><text x="0" y="178.28106030413238" font-family="Cascadia, Segoe UI Emoji" font-size="185.2585621150876px" fill="#fafafa" text-anchor="start" style="white-space: pre;" direction="ltr">FS</text></g></svg>